<svg width="58" height="41" viewBox="0 0 58 41" fill="none" xmlns="http://www.w3.org/2000/svg">
<path d="M1.72 15.16C1.68 15.16 1.68 15.16 1.68 15.16C1.6 15.56 1.44 15.88 1.36 16.28C1.64 16.2 1.4 15.88 1.64 15.84C1.6 16.08 1.48 16.32 1.4 16.56C1.4 16.52 1.44 16.4 1.36 16.4C1.24 16.84 1.12 17.4 1.04 18C1.16 17.96 1.2 17.88 1.16 18.04C1.12 18.2 1.12 18.04 1 18.04C0.8 19.88 0.48 21.8 0.92 23.76C0.96 23.76 1 23.76 1 23.8C0.92 23.8 1 24 0.96 24.08C1.6 26.4 3.36 27.48 5.2 28.52C5.28 28.52 5.28 28.4 5.36 28.4C6.2 28.88 7.16 28.84 8.32 28.68C8.36 28.64 8.32 28.6 8.4 28.6C9.16 28.52 9.56 28.04 10.24 27.84C10.28 27.72 10.36 27.68 10.4 27.6C11.52 26.88 12.32 25.72 13.04 24.6C13.2 24.32 13.44 24.12 13.6 23.88C13.72 23.76 13.72 23.56 13.84 23.32C13.88 23.16 14.08 23.08 14.12 22.92C14.4 22.36 14.68 21.8 14.88 21.16C14.88 21.12 14.92 20.96 14.92 20.92C15.2 20.16 15.68 19.44 15.8 18.68C15.88 18.48 16 18.24 15.92 18C16.04 17.96 16.04 17.8 16.08 17.8C16.32 15.92 16.72 14.04 16.48 12.04C16.36 12 16.36 11.84 16.28 11.76C16.16 10.68 15.84 9.84 15.4 8.92C14.48 8 13.28 7.04 11.76 7.04C11.52 7.08 11.28 7.16 11.24 7C11.44 6.6 11.48 6 11.56 5.64C11.68 5.64 11.56 5.8 11.72 5.76C11.68 5.56 11.48 5.4 11.52 5.16C10.88 4.2 9.44 4.44 8.4 4.56C8.2 4.8 7.76 4.52 7.64 4.76C7.44 4.64 7.36 4.76 7.2 4.68C6.92 4.84 6.64 5.08 6.64 5.52C6.48 5.52 6.52 5.36 6.52 5.32C4.32 7.48 2.96 10.84 1.96 14.16C1.96 14.2 2.08 14.16 2 14.28C1.96 14.4 1.88 14.16 1.88 14.28C1.88 14.6 1.68 14.84 1.72 15.16C1.88 15.12 1.72 15.32 1.72 15.16ZM6.96 5.08C6.92 4.88 7.04 4.88 7.2 4.88C7.2 5.04 7.04 5.04 6.96 5.08ZM6.72 5.32C6.68 5.12 6.88 5.16 6.8 5.04C6.92 5.04 6.92 5.12 6.92 5.16C6.8 5.16 6.8 5.36 6.72 5.32ZM6.44 5.52C6.44 5.48 6.52 5.4 6.44 5.36C6.44 5.4 6.4 5.48 6.44 5.52ZM6.4 5.64C6.44 5.6 6.48 5.6 6.48 5.52C6.64 5.56 6.48 5.72 6.4 5.64C6.4 5.8 6.2 5.84 6.16 5.96C6.08 6 6.08 6.12 6 6.08C6 6 6.04 5.96 6.16 5.96C6.16 5.84 6.24 5.8 6.2 5.64C6.32 5.6 6.32 5.72 6.4 5.64ZM10.08 5.88C10.12 5.88 10.24 5.88 10.28 5.88C10.28 6.2 10.64 6.72 10.52 7.08C9.92 7.24 9.32 7.2 8.8 7.48C8.92 6.8 9.76 6.52 10.08 5.88ZM5.76 6.2C5.84 6.2 5.92 6.44 5.92 6.12C6.04 6.32 5.72 6.6 5.6 6.72C5.6 6.52 5.84 6.48 5.76 6.2ZM5.68 6.8C5.68 6.8 5.72 6.84 5.68 6.8V6.8ZM5.28 6.92C5.28 6.76 5.48 6.8 5.44 6.92C5.36 6.96 5.32 6.84 5.28 6.92ZM5.28 7C5.28 7.04 5.28 7 5.28 7V7ZM5.2 7.2C5.04 7.2 5.2 7.08 5.2 7.04C5.28 7 5.2 7.2 5.28 7.16C5.28 7.32 5.12 7.08 5.2 7.2ZM5 7.32C4.96 7.52 5.2 7.32 5 7.32V7.32ZM5.2 7.48C5.2 7.48 5.24 7.48 5.2 7.48V7.48ZM4.76 7.96C4.6 7.8 4.8 7.72 4.84 7.64C5.04 7.76 4.72 8 4.6 8.12C4.52 8.12 4.6 8 4.6 7.96C4.64 7.96 4.72 7.96 4.76 7.96ZM12.2 8.72C13.68 10.2 13.44 13.44 13.24 15.32C13.04 16.4 12.52 17.56 12.48 18.48C12.44 18.48 12.44 18.44 12.44 18.28C12.04 19.52 11.48 20.72 10.96 21.88C10.96 21.96 11 21.96 11 22.08C10.88 22.08 10.88 22.04 10.88 21.96C9.68 24.28 8.36 26.48 5.92 27.24C4.4 26.64 4 24.96 3.68 23.08C3.68 22.8 3.68 22.56 3.64 22.2C3.88 17.76 5.08 13.2 7.24 9.4C7.36 9.4 7.4 9.4 7.48 9.4C7.48 9.2 7.44 9.16 7.52 9.12C7.72 9.12 7.52 9.2 7.64 9.2C7.96 9 8.32 8.84 8.68 8.64C8.84 8.64 8.68 8.68 8.72 8.72C8.96 8.68 9.2 8.36 9.44 8.52C9.76 8.24 10.16 8.44 10.4 8.2C10.56 8.2 10.52 8.44 10.64 8.48C10.72 8.36 10.88 8.36 10.96 8.16C11.2 8.12 11.52 8.36 11.56 8.12C11.8 8.36 12 8.52 12.2 8.72ZM4.64 8.36C4.6 8.6 4.72 8.16 4.64 8.36V8.36ZM4.48 8.36C4.48 8.4 4.4 8.4 4.36 8.4C4.36 8.36 4.4 8.4 4.48 8.36ZM4.52 8.52C4.6 8.72 4.6 8.4 4.52 8.52V8.52ZM4.32 8.92C4.32 9.12 4.16 9.16 4.16 9.36C4 9.16 4.16 9.24 3.92 9.36C4.04 9 4.16 8.84 4.32 8.52C4.4 8.72 4.16 8.84 4.32 8.92C4.48 8.96 4.32 8.76 4.32 8.92ZM4.52 8.68C4.52 8.72 4.48 8.68 4.4 8.72C4.4 8.68 4.48 8.68 4.52 8.68ZM4 9.44C3.92 9.48 3.92 9.44 3.88 9.44C3.88 9.4 4 9.4 4 9.44ZM3.52 10.36C3.36 10.12 3.8 9.8 3.8 9.48C3.92 9.72 3.52 10.08 3.52 10.36ZM4.08 9.56C4.08 9.48 4.12 9.48 4.08 9.56C4.08 9.6 4.08 9.64 4.04 9.68C3.92 9.68 4.04 9.56 4.04 9.56H4.08ZM3.84 10.08C3.84 10.12 3.8 10.08 3.8 10.08C3.8 10.04 3.84 10.04 3.84 10.08ZM3.04 11.16C3.12 10.92 3.28 10.68 3.36 10.4C3.44 10.6 3.2 11.08 3.04 11.16ZM3.6 10.76C3.4 10.68 3.6 10.6 3.6 10.52C3.76 10.52 3.6 10.64 3.6 10.76ZM3.44 10.88C3.44 10.84 3.52 10.84 3.44 10.88C3.36 10.88 3.52 11.04 3.44 10.88ZM3.2 11.28C3.2 11.16 3.28 11.12 3.36 11.12C3.32 11.16 3.32 11.28 3.2 11.28ZM3.12 11.52C3.04 11.52 2.96 11.48 2.96 11.36C3.08 11.36 3.12 11.4 3.12 11.52ZM2.96 11.64C2.92 11.64 2.92 11.56 2.88 11.56C2.92 11.48 3.04 11.6 2.96 11.64ZM3.08 11.8C2.96 11.76 3.12 11.64 3.08 11.56C3.08 11.56 3.12 11.56 3.16 11.56C3.12 11.56 3.16 11.56 3.16 11.56C3.12 11.64 3.12 11.76 3.08 11.8ZM2.64 12.36C2.64 12.08 2.8 12.04 2.8 11.8C2.92 11.76 2.92 12 2.96 11.84C3.08 12.08 2.84 12.6 2.68 12.76C2.68 12.56 2.96 12.24 2.8 12.08C2.68 12.12 2.8 12.36 2.64 12.36ZM2.6 12.44C2.6 12.68 2.64 12.24 2.6 12.44V12.44ZM2.36 13C2.44 12.84 2.4 12.68 2.6 12.6C2.6 12.8 2.48 12.92 2.36 13C2.36 13.04 2.32 13.04 2.36 13ZM2.6 13.04C2.6 13 2.6 12.96 2.6 12.96C2.6 12.8 2.72 13.04 2.6 13.04C2.6 13.4 2.36 13.76 2.24 14.04C2.32 13.72 2.4 13.28 2.6 13.04ZM2.32 13.4C2.2 13.4 2.32 13.16 2.36 13.08C2.4 13.16 2.32 13.28 2.32 13.4ZM2.12 13.76C2.16 13.72 2.16 13.56 2.2 13.48C2.32 13.52 2.2 13.76 2.12 13.76ZM2.12 13.96C2.08 13.76 2.2 13.92 2.12 13.96C2.08 14.04 2.16 14.12 2.2 14.16C2.2 14.12 2.24 14.12 2.2 14.16C2.2 14.28 2.2 14.28 2.16 14.48C1.96 14.48 2.32 14.12 2 14.16C2 14.04 2 14 2.08 13.96C2.08 13.96 2.08 13.96 2.12 13.96ZM2.44 14.44V14.4C2.44 14.4 2.48 14.4 2.6 14.4V14.44C2.48 14.44 2.44 14.44 2.44 14.44ZM1.88 14.72C1.92 14.64 1.88 14.4 2 14.4C1.96 14.48 2 14.68 1.88 14.72C1.92 14.84 1.92 14.84 1.88 14.96C1.76 14.96 1.84 14.76 1.88 14.72ZM2.08 14.88C1.96 14.84 2.08 14.64 2.12 14.6C2.24 14.64 2.08 14.72 2.08 14.88ZM1.76 15C1.84 15.16 1.84 14.88 1.76 15V15ZM1.76 15.88C1.76 15.6 1.92 15.32 1.96 14.96C2.08 15.2 1.88 15.64 1.76 15.88C1.84 16.2 1.64 16.52 1.68 16.76C1.44 16.56 1.72 16.08 1.76 15.88ZM1.72 15.32C1.76 15.48 1.76 15.16 1.72 15.32V15.32ZM1.64 15.6C1.64 15.56 1.72 15.56 1.68 15.4C1.76 15.4 1.72 15.64 1.64 15.6ZM1.6 15.72C1.6 15.96 1.64 15.6 1.6 15.72V15.72ZM2.12 15.96C2.08 15.92 2.12 15.96 2.12 15.96V15.96ZM1.96 16.44C1.96 16.52 1.92 16.52 1.92 16.52C1.92 16.44 1.96 16.44 1.96 16.44ZM1.4 16.84C1.4 16.92 1.28 16.84 1.36 16.8C1.36 16.8 1.36 16.84 1.4 16.84ZM1.6 17C1.48 17.12 1.44 16.88 1.48 16.8C1.72 16.8 1.44 17.04 1.6 17ZM1.36 17.08C1.28 17.08 1.28 17.04 1.28 17C1.36 16.92 1.36 17 1.36 17.04V17.08ZM1.44 17.28C1.4 17.08 1.6 17.24 1.44 17.28C1.36 17.28 1.48 17.48 1.44 17.28ZM1.2 17.48C1.24 17.6 1.24 17.28 1.2 17.48V17.48ZM1.36 17.6C1.36 17.56 1.36 17.52 1.36 17.48C1.48 17.4 1.48 17.64 1.36 17.6ZM1.24 17.6C1.24 17.64 1.2 17.64 1.16 17.64C1.16 17.6 1.2 17.64 1.24 17.6ZM1.36 18.2C1.2 18.08 1.24 17.76 1.4 17.76C1.36 17.96 1.36 18.04 1.36 18.2ZM1.16 18.52C1.2 18.32 1.12 18.2 1.16 18.12C1.28 18.12 1.36 18.52 1.16 18.52ZM1.04 18.32C1.04 18.28 1.04 18.28 1.04 18.24C1.04 18.24 1.12 18.24 1.16 18.24C1.16 18.28 1.16 18.28 1.16 18.32C1.12 18.32 1.04 18.32 1.04 18.32ZM1.16 19.04C1.16 18.84 1.16 18.76 1 18.56C1.04 18.56 1.12 18.56 1.12 18.6C1.16 18.68 1.16 18.56 1.24 18.6C1.2 18.76 1.28 18.96 1.16 19.04ZM0.96 18.96C0.96 18.92 0.96 18.92 0.96 18.84C1.04 18.84 1.04 18.92 1.04 19C1 19 1 18.96 0.96 18.96ZM1.04 20.28C0.92 20 1.16 19.44 1.12 19.08C1.2 19.52 1.04 19.96 1.04 20.28ZM0.96 19.44C0.92 19.44 0.96 19.24 0.96 19.2C1.12 19.16 0.96 19.28 0.96 19.44ZM0.96 19.8C0.96 19.8 0.92 19.8 0.88 19.8C0.88 19.8 0.92 19.8 0.96 19.8ZM11.92 19.96C11.96 20.12 11.96 19.8 11.92 19.96V19.96ZM1.28 20C1.36 20.16 1.36 19.8 1.28 20V20ZM0.92 20.28C0.8 20.24 0.88 20.12 0.88 20C1 20 0.88 20.16 0.92 20.28ZM0.8 20.96C0.96 20.88 0.96 20.68 0.96 20.44C1 20.84 1 21.2 0.96 21.64C0.92 21.6 0.88 21.36 0.8 21.48C0.76 21.44 0.76 21.16 0.8 21C0.92 21.16 0.76 21.32 0.92 21.44C1 21.32 0.96 20.96 0.8 20.96ZM0.92 20.48C0.88 20.52 0.88 20.48 0.8 20.48C0.8 20.44 0.92 20.44 0.92 20.48ZM1 22.44C0.72 22.36 1 21.92 0.92 21.8C0.92 21.68 0.96 21.8 1 21.8C0.96 21.96 0.96 22.2 1 22.44ZM11.08 21.8C11.08 21.8 11.12 21.8 11.08 21.8V21.8ZM0.8 22.52C0.88 22.64 0.88 22.32 0.8 22.52V22.52ZM0.96 22.52C0.92 22.76 1.12 22.56 0.96 22.52V22.52ZM1.24 22.6C1.28 22.76 1.28 22.44 1.24 22.6V22.6ZM0.96 22.68C0.96 22.84 0.96 22.56 0.96 22.68V22.68ZM0.96 22.84C1 22.76 1.04 23.04 0.96 22.84V22.84ZM1.24 22.84C1.28 23.04 1.28 22.68 1.24 22.84V22.84ZM1.04 23.24C1 23.16 0.96 23.12 0.96 23.04C1.12 23.04 1.04 23.12 1.04 23.24ZM0.88 23.12C0.92 23.28 0.92 23 0.88 23.12V23.12ZM0.92 23.36C0.96 23.56 0.96 23.24 0.92 23.36V23.36ZM0.96 23.52C0.92 23.52 0.96 23.56 0.96 23.52V23.52ZM1.04 23.52C1.12 23.64 1.12 23.32 1.04 23.52V23.52ZM1.16 23.88C1.16 23.96 1.12 23.96 1.04 23.96C1.04 23.88 1.12 23.88 1.16 23.88ZM1.2 24.6C1.24 24.76 1.24 24.48 1.2 24.6V24.6ZM1.28 24.76C1.36 24.92 1.36 24.6 1.28 24.76V24.76ZM6.8 4.76C6.8 4.8 6.8 4.8 6.8 4.8C6.8 4.84 6.8 4.84 6.8 4.88C6.92 4.92 6.92 4.76 6.8 4.76ZM11.72 8.44C11.76 8.44 11.76 8.48 11.84 8.52C11.84 8.44 11.72 8.36 11.72 8.44ZM9.2 8.6C9.28 8.72 9.32 8.44 9.2 8.6V8.6ZM10.64 8.6C10.72 8.72 10.76 8.44 10.64 8.6V8.6ZM12 8.68C12 8.6 11.96 8.6 11.92 8.52C11.92 8.64 11.96 8.68 12 8.68ZM12 8.68C12.08 8.84 12.2 8.96 12.32 9.12C12.4 9 12.2 8.88 12.2 8.72C12.08 8.76 12.04 8.68 12 8.68ZM8.48 8.88C8.56 9 8.56 8.72 8.48 8.88V8.88ZM4.16 8.92C4.16 9 4.12 9.08 4.16 9.12C4.24 9.08 4.28 8.92 4.16 8.92ZM12.4 9.12C12.52 9.4 12.56 9.8 12.88 9.92C12.72 9.68 12.68 9.36 12.4 9.12ZM12.88 9.96C13 10.68 13.2 11.76 13.28 12.56C13.24 11.72 13.16 10.68 12.88 9.96ZM2.84 11.88C2.8 12 2.88 12.12 2.96 12.04C2.88 12.04 2.92 11.88 2.84 11.88ZM13.24 12.72L13.28 12.8C13.36 12.76 13.24 12.6 13.24 12.72ZM13.24 12.84C13.2 12.96 13.24 13 13.28 13C13.28 12.92 13.28 12.84 13.24 12.84ZM13.24 13.08C13.24 13.16 13.2 13.28 13.28 13.24C13.28 13.2 13.28 13.08 13.24 13.08ZM13.24 13.48C13.2 13.52 13.2 13.68 13.24 13.76C13.24 13.68 13.4 13.48 13.24 13.48Z" fill="white" fill-opacity="0.2"/>
<path d="M22.4534 9.24C22.4534 9.08 22.4934 8.92 22.6134 8.76C22.6134 8.72 22.5734 8.84 22.4934 8.72C22.6934 8.36 22.6534 8.12 22.6534 7.52C22.8934 7.2 22.8134 6.84 22.8534 6.28C23.0534 4.36 23.7734 2.76 23.3734 0.999998C23.2134 0.799998 23.0934 0.559999 22.8534 0.359999C22.2534 0.319999 21.9334 0.319999 21.2534 0.359999C21.0534 0.719999 20.7734 0.439998 20.4134 0.559999C20.3334 1.04 20.4934 1.28 20.5334 1.56C20.5334 1.44 20.5334 1.24 20.6534 1.2C20.6534 2 20.4134 2.68 20.4134 3.24C20.4534 3.24 20.4934 3.24 20.4534 3.32C20.4534 3.32 20.4134 3.32 20.4134 3.24C20.4134 3.24 20.3334 3.32 20.2934 3.32C20.4934 3.64 20.0534 3.96 20.2134 4.4C20.2934 4.4 20.3334 4.44 20.2934 4.56C20.2534 4.56 20.2134 4.52 20.2134 4.4C20.2134 4.4 20.2134 4.4 20.1734 4.4C20.0534 4.6 20.2134 4.6 20.2134 4.76C20.2534 4.84 20.2934 4.76 20.2134 4.76C20.0134 4.76 20.2534 4.88 20.2134 5C20.0934 5.04 20.0534 4.84 20.0534 5.04C20.2534 4.88 20.0934 5.48 20.2134 5.36C20.2534 5 20.4134 4.68 20.3334 4.28C20.2934 4.28 20.2534 4.2 20.2934 4.16C20.3334 4.16 20.4134 4.2 20.3334 4.28C20.4934 4.16 20.3334 3.88 20.4934 3.8C20.4134 4.68 20.3334 5.28 20.0934 6.04C19.8134 8.28 19.3734 10.8 18.9734 12.72C18.9734 13.32 18.8534 13.88 18.6534 14.28C18.5334 15.56 18.1734 17.52 17.8934 18.6C17.8134 20.28 17.2934 22.44 17.2134 24.6C17.0534 26 17.1334 26.72 17.1334 28.04C17.2134 28.4 17.3334 29.04 17.2934 29.32C17.1334 28.88 17.1334 28.52 17.1334 28.04C16.8934 25.44 17.2134 23.08 17.6134 20.44C17.4534 20.4 17.6134 20.64 17.4534 20.6C17.5334 20.72 17.5334 21 17.3734 21.12C17.3734 21.08 17.4134 20.92 17.3334 20.92C17.3334 21.16 17.2934 21.12 17.3334 21.24C17.4534 21.24 17.4134 21.44 17.3334 21.48C17.4134 21.68 17.3334 21.72 17.2134 21.6C17.2934 21.8 17.1734 21.8 17.2134 21.92C17.2934 21.92 17.2934 21.92 17.2934 21.92C17.2934 21.92 17.3334 21.88 17.3334 21.92C17.3334 21.92 17.3334 21.92 17.2934 21.92C17.2934 22.08 17.3734 22.36 17.2134 22.4C17.2134 22.28 17.2134 22.12 17.2134 21.92C17.1734 22.28 17.0934 22.64 17.1334 23.04C17.1334 22.92 17.1734 22.92 17.1734 22.84C17.1734 22.84 17.1334 22.8 17.1734 22.8C17.1734 22.84 17.1734 22.84 17.1734 22.84C17.3334 23.04 17.1334 23.12 17.0534 23.16C17.1334 23.32 16.9334 23.56 17.0534 23.8C17.0934 23.88 17.1334 23.8 17.0534 23.8C16.8534 23.84 17.2934 23.96 16.9734 23.96C16.9734 24.08 17.1734 24 17.0534 24.2C17.0934 24.2 17.1334 24.28 17.0534 24.28C17.0534 24.28 17.0534 24.24 17.0534 24.2C16.9734 24.2 17.0534 24.08 16.9334 24.08C16.9734 24.6 16.8534 24.76 16.9734 25C16.9734 24.96 17.0534 24.92 17.0534 24.96C17.0534 25 17.0534 25 16.9734 25C16.7334 25.76 16.9334 27.24 16.8934 28.2C16.9334 28.32 16.9734 28.2 16.8934 28.2C16.7334 28.32 17.0534 28.32 16.9734 28.44C16.9334 28.52 17.0534 28.68 16.8534 28.56C16.8934 28.68 16.8934 28.84 16.9334 28.88C16.9334 28.84 16.9334 28.68 16.9734 28.68C17.0934 29 17.0534 29.28 16.9734 29.56C17.3334 29.76 17.0534 30.12 17.2934 30.28C17.1734 30.32 17.3334 30.56 17.1734 30.6C17.6134 31.48 17.7734 32.52 18.8934 32.64C19.0934 32.76 19.2534 32.92 19.5334 32.92C19.6134 32.96 19.6134 33.12 19.7334 33.12C19.7734 33 19.5734 32.96 19.7334 32.92C19.8134 32.96 19.9334 33.08 19.9734 33.12C19.9734 32.84 20.3334 32.92 20.3334 32.68C20.4134 32.72 20.4534 32.76 20.4934 32.76C20.4934 32.6 20.5734 32.28 20.2934 31.96C20.0534 29.52 20.0134 26.64 20.2934 23.28C20.4134 23.36 20.3334 23.56 20.5334 23.56C20.5334 23.52 20.4934 23.48 20.5734 23.48C20.5734 23.52 20.5734 23.56 20.5334 23.56C20.9734 24.24 21.6134 24.68 22.0934 25.2C22.3734 25.48 22.6934 25.68 22.9334 25.96C23.1334 26.04 23.4134 26.2 23.4134 26.44C23.6534 26.48 23.4134 26.36 23.5334 26.36C23.6934 26.4 23.6534 26.68 23.8534 26.52C23.8934 26.88 24.2534 26.84 24.4134 26.88C24.8534 27.08 25.2134 27.24 25.6134 27.24C26.1734 27.32 26.4934 26.88 26.9734 26.88C26.9334 26.72 27.1334 26.76 27.1734 26.76C27.2934 26.48 27.4134 26.36 27.3734 26.04C25.1334 25.32 23.4534 23.48 22.0934 21.68C22.0134 21.68 22.0934 21.64 22.0934 21.68C24.3734 21 26.3334 19.28 27.6534 17.48C28.1734 16.8 28.8134 15.48 28.8134 14.84C29.0534 12.72 26.2934 11.76 24.5734 12.24C24.6134 12.24 24.6534 12.28 24.5734 12.28C24.5734 12.32 24.5734 12.32 24.5334 12.28C24.4134 12.2 24.4934 12.32 24.2934 12.28C23.8934 12.6 22.7334 13.08 22.2134 13.64C22.0934 13.52 21.9334 13.88 21.6934 13.88C21.9734 12.6 22.0934 10.84 22.4534 9.44C22.4134 9.48 22.4134 9.2 22.4534 9.24ZM21.5334 0.519999C21.5334 0.559999 21.4934 0.559999 21.4534 0.559999C21.4534 0.519999 21.5334 0.519999 21.5334 0.519999ZM20.6534 2.72C20.6934 2.64 20.5734 2.4 20.7334 2.44C20.7734 2.6 20.7334 2.68 20.6534 2.72C20.7334 2.84 20.5734 2.96 20.6534 3.16C20.4934 3.16 20.6934 2.92 20.5734 2.72C20.6534 2.72 20.6534 2.72 20.6534 2.72ZM20.5334 3.4C20.4934 3.12 20.6934 3.32 20.5334 3.4C20.5334 3.48 20.6534 3.8 20.4534 3.72C20.4934 3.64 20.5334 3.56 20.4934 3.4C20.5334 3.4 20.5334 3.4 20.5334 3.4ZM20.3334 3.84C20.2934 3.64 20.4934 3.84 20.3334 3.84C20.2134 3.84 20.4134 4.04 20.3334 3.84ZM20.4534 5.48C20.4534 5.48 20.4934 5.52 20.4534 5.48V5.48ZM20.3334 5.52C20.3334 5.52 20.4134 5.56 20.3334 5.52V5.52ZM20.0934 6.72C20.2134 6.92 20.2134 6.52 20.0934 6.72V6.72ZM20.0934 7.04C20.2134 7.24 20.2134 6.84 20.0934 7.04V7.04ZM20.0934 7.52C20.0934 7.52 20.1734 7.56 20.0934 7.52V7.52ZM20.0134 8.52C20.0134 8.6 19.9734 8.6 19.9334 8.6C19.9334 8.52 20.0134 8.52 20.0134 8.52ZM20.0534 9.08C20.0534 9.08 20.0934 9.12 20.0534 9.08V9.08ZM20.0134 9.16C20.0134 9.16 20.0534 9.2 20.0134 9.16V9.16ZM19.6934 9.88C19.6934 9.88 19.7334 9.92 19.6934 9.88V9.88ZM19.5734 10.04C19.6934 10.2 19.6934 9.84 19.5734 10.04V10.04ZM19.5334 10.16C19.6134 10.36 19.6134 9.96 19.5334 10.16V10.16ZM19.7734 10.28C19.7734 10.32 19.7334 10.32 19.6934 10.32C19.6934 10.28 19.7734 10.28 19.7734 10.28ZM19.5734 10.64C19.5334 10.6 19.6134 10.52 19.5734 10.32C19.7334 10.36 19.7734 10.64 19.5734 10.64C19.6134 10.84 19.4534 10.64 19.5734 10.64ZM19.3734 10.84C19.3734 10.84 19.4534 10.88 19.3734 10.84V10.84ZM19.7334 10.88C19.8134 11.08 19.8534 10.68 19.7334 10.88V10.88ZM19.6134 10.92C19.6134 10.88 19.7334 10.92 19.6134 10.92C19.5734 11 19.6134 11 19.6134 10.92ZM19.6934 11.12C19.6934 11.12 19.7334 11.16 19.6934 11.12V11.12ZM19.4934 11.36C19.3334 11.36 19.5334 11.16 19.4934 11.36C19.5334 11.36 19.5734 11.48 19.4934 11.48C19.2934 11.48 19.5334 11.72 19.4934 11.48C19.4934 11.48 19.4934 11.4 19.4934 11.36ZM19.3334 11.36C19.3334 11.36 19.3734 11.4 19.3334 11.36V11.36ZM19.5734 11.8C19.6934 12 19.6934 11.6 19.5734 11.8V11.8ZM19.2534 11.84C19.2534 11.84 19.2934 11.88 19.2534 11.84V11.84ZM19.2534 11.96C19.2534 11.96 19.2934 12 19.2534 11.96V11.96ZM19.2934 12.12C19.3734 12.32 19.4534 11.96 19.2934 12.12V12.12ZM24.3734 12.36C24.3734 12.36 24.4134 12.44 24.3734 12.36V12.36ZM19.2134 12.68C19.2934 12.84 19.2934 12.48 19.2134 12.68V12.68ZM19.1334 12.92C19.1334 13.2 19.2134 12.72 19.1334 12.92V12.92ZM19.5334 13.04C19.5334 13.04 19.5734 13.08 19.5334 13.04V13.04ZM19.0934 13.28C19.2134 13.48 19.2134 13.08 19.0934 13.28V13.28ZM19.0534 13.52C19.1334 13.72 19.2134 13.32 19.0534 13.52V13.52ZM18.8934 13.64C19.0134 13.8 19.0134 13.44 18.8934 13.64V13.64ZM22.6934 18.72C22.0134 19 21.4934 19.72 20.7734 19.68C20.8134 17.96 22.0934 16.52 23.4534 15.32C24.2934 14.64 25.3734 14 26.2934 13.64C26.4134 13.72 26.5734 13.68 26.5734 13.72C26.6534 14 26.4134 14.4 26.2534 14.68C26.2934 14.88 26.4534 14.6 26.4134 14.76C26.3334 14.88 26.2934 14.88 26.2134 14.76C25.9734 15.24 25.4934 15.72 25.3334 16.12C25.4934 16.16 25.3734 15.92 25.5334 15.96C25.5334 16.16 25.4534 16.12 25.4934 16.28C25.4534 16.28 25.3734 16.16 25.3334 16.28C25.3334 16.28 25.3334 16.28 25.2934 16.28C25.2934 16.36 25.4534 16.32 25.3734 16.44C25.3334 16.44 25.2934 16.44 25.2934 16.36C25.0934 16.52 25.0534 16.8 24.8134 16.84C24.8134 16.92 24.7734 17 24.7334 17.04C24.8934 17.08 24.8534 16.88 25.0134 16.88C25.0134 16.84 25.0534 16.8 25.0534 16.76C25.1334 16.76 25.0934 16.84 25.0534 16.88C25.0534 16.88 25.0534 16.88 25.0134 16.88C24.8534 17.04 24.8134 17.28 24.5734 17.32C24.6134 17.24 24.7734 17.24 24.7334 17.04C24.6134 17.04 24.6534 17.24 24.4934 17.24C24.4134 17.28 24.4934 17.28 24.4934 17.24C24.5334 17.04 24.6534 16.92 24.8134 16.84C24.8534 16.76 24.9734 16.68 24.9734 16.56C24.5334 16.92 24.2934 17.32 23.8534 17.72C23.8934 17.72 23.9334 17.72 23.9334 17.72C24.0134 17.64 24.0534 17.64 24.0534 17.56C24.0934 17.56 24.1334 17.56 24.0934 17.6C24.0934 17.64 24.0934 17.72 24.0934 17.72C24.0534 17.72 24.0134 17.72 23.9334 17.72C23.9334 17.8 23.9334 17.8 23.8934 17.84C23.8534 17.84 23.8534 17.8 23.8534 17.72C23.6534 17.76 23.6134 17.96 23.4534 18.08C23.5334 18.08 23.5734 18.12 23.4534 18.12C23.3734 18.28 23.0534 18.32 22.8934 18.56C22.9334 18.68 22.9734 18.56 22.8934 18.56C22.8134 18.6 22.6934 18.6 22.6934 18.72C22.8134 18.72 22.7334 18.84 22.8134 18.84C22.8534 18.68 23.0534 18.84 22.8134 18.84C22.7334 19 22.6134 18.76 22.6934 18.72ZM26.7334 13.8C26.8134 14 26.8134 13.64 26.7334 13.8V13.8ZM19.2134 13.92C19.2134 13.92 19.2134 13.88 19.2134 13.8C19.2534 13.8 19.2934 13.8 19.2934 13.8C19.2934 13.88 19.2934 13.92 19.2934 13.92C19.2934 13.92 19.2534 13.92 19.2134 13.92ZM18.8534 13.92C18.8534 13.92 18.8934 13.96 18.8534 13.92V13.92ZM19.0134 13.92C19.0134 13.92 19.0534 13.96 19.0134 13.92V13.92ZM18.9734 14.16C18.8934 13.96 19.0934 14.16 18.9734 14.16C18.8934 14.2 18.9734 14.2 18.9734 14.16ZM26.4934 14.36C26.5734 14.52 26.5734 14.16 26.4934 14.36V14.36ZM18.8534 14.52C18.8534 14.52 18.8934 14.6 18.8534 14.52V14.52ZM26.3334 14.64C26.3334 14.64 26.4134 14.68 26.3334 14.64V14.64ZM18.7334 14.68C18.8134 14.88 18.8134 14.48 18.7334 14.68V14.68ZM18.8134 14.84C18.8134 14.84 18.8134 14.76 18.8134 14.72C18.8534 14.72 18.8934 14.72 18.8934 14.72C18.8934 14.76 18.8934 14.84 18.8934 14.84C18.8934 14.84 18.8534 14.84 18.8134 14.84ZM18.8134 14.92C18.8934 15.12 18.8934 14.72 18.8134 14.92V14.92ZM19.0134 15.08C18.8534 14.92 19.2134 15 19.0134 15.08C18.9734 15.12 19.0134 15.12 19.0134 15.08ZM26.1734 15.08C26.2134 14.92 26.4134 15.12 26.1734 15.08C26.1734 15.12 26.1734 15.12 26.0934 15.12C26.0934 15.2 26.0934 15.24 26.0134 15.24C26.0134 15.36 26.0134 15.4 25.9734 15.44C25.8534 15.44 25.9734 15.24 26.0134 15.24C26.0134 15.2 26.0534 15.16 26.0534 15.12C26.0934 15.12 26.0934 15.12 26.0934 15.12L26.1734 15.08ZM18.7734 15.16C18.7334 15.16 18.7734 15.12 18.7734 15.16C18.8534 15.16 18.8134 15.24 18.7734 15.32C18.7334 15.32 18.7734 15.2 18.7734 15.16ZM18.6134 15.32C18.7334 15.48 18.7334 15.12 18.6134 15.32V15.32ZM18.8134 15.4C18.8134 15.44 18.7734 15.44 18.7334 15.44C18.7334 15.4 18.8134 15.4 18.8134 15.4ZM18.8934 15.48C19.0134 15.36 19.0534 15.68 18.8934 15.48V15.48ZM18.5734 15.64C18.5734 15.64 18.6134 15.68 18.5734 15.64V15.64ZM25.5334 15.92C25.6934 15.88 25.6134 15.64 25.7734 15.64C25.7334 15.8 25.7334 15.92 25.5334 15.92ZM18.6134 15.92C18.6134 15.84 18.6534 15.84 18.6534 15.72C18.7734 15.72 18.7734 16.04 18.6134 15.92ZM18.6534 16.04C18.6534 16.04 18.7334 16.08 18.6534 16.04V16.04ZM18.5734 16.12C18.5734 16.12 18.6134 16.16 18.5734 16.12V16.12ZM18.4934 16.2C18.4934 16.16 18.5734 16.2 18.4934 16.2C18.4134 16.28 18.4934 16.28 18.4934 16.2ZM18.7734 16.2C18.8534 16.4 18.8934 16.04 18.7734 16.2V16.2ZM18.5334 16.32C18.6134 16.52 18.6134 16.12 18.5334 16.32V16.32ZM18.6134 16.36C18.6134 16.36 18.6534 16.4 18.6134 16.36V16.36ZM18.7334 16.56C18.7334 16.56 18.7734 16.6 18.7334 16.56V16.56ZM25.3334 16.56C25.3334 16.6 25.2934 16.6 25.2534 16.6C25.2534 16.56 25.3334 16.56 25.3334 16.56ZM18.6534 16.8C18.7734 17 18.7734 16.6 18.6534 16.8V16.8ZM18.4134 16.92C18.5334 17.12 18.5334 16.76 18.4134 16.92V16.92ZM18.5734 17.16C18.6134 17.12 18.6534 17.08 18.6134 16.92C18.7734 16.88 18.7334 17.24 18.5734 17.16ZM18.3734 17.28C18.3734 17.28 18.4134 17.32 18.3734 17.28V17.28ZM18.2534 17.36C18.2534 17.36 18.2934 17.4 18.2534 17.36V17.36ZM24.2934 17.36C24.3734 17.56 24.3734 17.16 24.2934 17.36V17.36ZM24.5734 17.36C24.5734 17.4 24.5334 17.4 24.4934 17.4C24.4934 17.36 24.5734 17.36 24.5734 17.36ZM18.2534 17.48C18.2534 17.76 18.2934 17.28 18.2534 17.48V17.48ZM24.1734 17.52C24.0934 17.72 24.3734 17.4 24.1734 17.52V17.52ZM18.3334 17.96C18.2534 17.88 18.2934 17.6 18.3334 17.56C18.4134 17.64 18.3734 17.76 18.3334 17.96ZM24.1334 17.88C24.0934 17.72 24.2934 17.88 24.1334 17.88C24.0934 17.96 24.1334 17.96 24.1334 17.88ZM18.1334 17.88C18.1334 17.88 18.1734 17.96 18.1334 17.88V17.88ZM24.0134 17.88C24.0134 17.88 24.0534 17.96 24.0134 17.88V17.88ZM23.8534 17.96C23.9334 18.12 23.9334 17.76 23.8534 17.96V17.96ZM18.3334 18.04C18.3334 18.04 18.3734 18.08 18.3334 18.04V18.04ZM24.4934 18.04C24.4934 18.04 24.5334 18.08 24.4934 18.04V18.04ZM18.2534 18.12C18.3334 18.32 18.3334 17.96 18.2534 18.12V18.12ZM23.6534 18.2C23.6534 18.2 23.6934 18.24 23.6534 18.2V18.2ZM23.2934 18.32C23.2934 18.32 23.3334 18.36 23.2934 18.32V18.32ZM23.5334 18.32C23.5334 18.32 23.5734 18.36 23.5334 18.32V18.32ZM23.3734 18.44C23.3734 18.36 23.4534 18.44 23.3734 18.44C23.3734 18.48 23.3734 18.56 23.2934 18.52C23.2934 18.52 23.2934 18.48 23.2934 18.44C23.3334 18.44 23.3734 18.44 23.3734 18.44ZM18.1734 18.48C18.0934 18.68 18.3734 18.36 18.1734 18.48V18.48ZM23.0534 18.56C23.0534 18.56 23.0934 18.6 23.0534 18.56V18.56ZM18.3734 18.6C18.3734 18.6 18.4134 18.68 18.3734 18.6V18.6ZM23.1334 18.6C23.1334 18.56 23.2134 18.6 23.1334 18.6C23.1334 18.68 23.1334 18.68 23.0934 18.68C23.0934 18.72 23.0934 18.72 23.0534 18.72C22.9734 18.76 23.0534 18.76 23.0534 18.72L23.0934 18.68L23.1334 18.6ZM18.1334 18.68C18.2534 18.84 18.2534 18.48 18.1334 18.68V18.68ZM18.2934 18.92C18.3734 19.08 18.4134 18.72 18.2934 18.92V18.92ZM18.1334 19C18.2534 19.2 18.2934 18.8 18.1334 19V19ZM22.0134 19.16C22.1734 19.2 22.2534 19.28 22.2134 19.04C22.4934 19.2 22.0134 19.4 21.8934 19.44C21.9334 19.4 21.8934 19.32 21.8534 19.32C21.9334 19.28 22.0134 19.28 22.0134 19.16ZM22.4934 19.08C22.4934 19.08 22.5734 19.16 22.4934 19.08V19.08ZM22.5734 19.28C22.6534 19.48 22.6534 19.08 22.5734 19.28V19.28ZM17.8934 19.44C17.8934 19.44 17.9334 19.48 17.8934 19.44V19.44ZM21.7334 19.48C21.7334 19.44 21.8534 19.48 21.7334 19.48C21.6934 19.64 21.5334 19.64 21.4134 19.64C21.4134 19.8 21.2534 19.76 21.0534 19.76C21.2134 19.72 21.2534 19.64 21.4134 19.64C21.4934 19.56 21.6134 19.48 21.7334 19.48ZM18.0134 19.56C18.0134 19.88 18.0534 19.4 18.0134 19.56V19.56ZM18.0534 19.76C18.0534 19.76 18.0934 19.8 18.0534 19.76V19.76ZM18.1334 19.96C18.1334 19.96 18.1734 20 18.1334 19.96V19.96ZM17.8934 20.12C17.8134 20.36 18.0534 19.88 17.8934 20.12V20.12ZM17.7734 20.44C17.7734 20.44 17.8134 20.48 17.7734 20.44V20.44ZM17.8134 20.68C17.8534 20.64 17.8534 20.6 17.8534 20.48C17.9334 20.48 17.9334 20.76 17.8134 20.68ZM17.8134 20.76C17.8934 20.96 17.8934 20.6 17.8134 20.76V20.76ZM17.6934 20.88C17.6934 20.88 17.7734 20.92 17.6934 20.88V20.88ZM17.8134 20.92C17.8934 21.12 17.8934 20.72 17.8134 20.92V20.92ZM18.0534 21.08C18.0134 21.08 18.0534 20.96 18.0134 20.88C18.1334 20.92 18.0934 20.96 18.0534 21.08ZM18.0134 21.16C18.0134 21.16 18.0534 21.2 18.0134 21.16V21.16ZM18.0134 21.4C17.8534 21.24 18.1334 21.12 18.0134 21.4V21.4ZM17.6934 21.4C17.6934 21.4 17.7734 21.44 17.6934 21.4V21.4ZM17.9334 21.48C17.9334 21.8 18.0134 21.32 17.9334 21.48V21.48ZM17.5734 21.68C17.5734 21.68 17.6134 21.72 17.5734 21.68V21.68ZM17.9334 21.68C17.9334 21.72 17.8934 21.72 17.8534 21.72C17.8534 21.68 17.9334 21.68 17.9334 21.68ZM17.2934 21.8C17.2934 21.8 17.3334 21.84 17.2934 21.8V21.8ZM17.6534 21.88C17.6534 21.88 17.6934 21.92 17.6534 21.88V21.88ZM17.6534 22.04C17.6534 22.04 17.6934 22.08 17.6534 22.04V22.04ZM17.9334 22.2C17.9334 22.28 17.8934 22.28 17.8534 22.28C17.8534 22.2 17.9334 22.2 17.9334 22.2ZM17.6134 22.36C17.6134 22.64 17.6534 22.16 17.6134 22.36V22.36ZM17.2934 22.44C17.0934 22.52 17.2934 22.68 17.2934 22.44V22.44ZM17.5734 22.76C17.5734 23.04 17.6134 22.56 17.5734 22.76V22.76ZM17.4134 22.92C17.4134 22.92 17.4534 23 17.4134 22.92V22.92ZM17.1334 23.28C17.1334 23.28 17.1734 23.32 17.1334 23.28V23.28ZM17.0934 23.4C17.0934 23.4 17.1334 23.48 17.0934 23.4V23.4ZM17.5334 23.4C17.5334 23.4 17.5734 23.48 17.5334 23.4V23.4ZM17.0934 23.56C17.0934 23.84 17.1334 23.36 17.0934 23.56V23.56ZM20.6534 23.6C20.7334 23.8 20.7334 23.4 20.6534 23.6V23.6ZM17.4534 23.72C17.5734 23.88 17.5734 23.52 17.4534 23.72V23.72ZM17.5334 23.88C17.5334 23.88 17.5734 23.96 17.5334 23.88V23.88ZM21.3734 24.44C21.4534 24.28 21.4934 24.6 21.3734 24.44V24.44ZM16.9734 24.48C16.9734 24.48 17.0534 24.52 16.9734 24.48V24.48ZM16.9734 24.6C17.0934 24.8 17.0934 24.44 16.9734 24.6V24.6ZM16.9334 25.44C16.9334 25.44 16.9734 25.48 16.9334 25.44V25.44ZM17.2134 25.72C17.2134 25.72 17.2934 25.76 17.2134 25.72V25.72ZM16.9334 25.76C17.0534 25.96 17.0534 25.56 16.9334 25.76V25.76ZM23.6134 26.2C23.6134 26.24 23.5734 26.24 23.5334 26.24C23.5334 26.2 23.6134 26.2 23.6134 26.2ZM16.8934 26.6C16.8934 26.6 16.9334 26.64 16.8934 26.6V26.6ZM16.9334 26.96C16.9334 26.96 16.9734 27 16.9334 26.96V26.96ZM17.2134 29.4C17.3734 29.64 17.3734 29.28 17.2134 29.4V29.4ZM17.0534 29.52C17.1334 29.72 17.1334 29.32 17.0534 29.52V29.52ZM17.2934 29.6C17.3734 29.8 17.3734 29.4 17.2934 29.6V29.6ZM17.3334 29.8C17.3334 29.8 17.3734 29.84 17.3334 29.8V29.8ZM17.3334 29.88C17.4134 29.76 17.4534 30.08 17.3334 29.88V29.88ZM17.4534 30.24C17.4534 30.32 17.4534 30.24 17.3734 30.24C17.4134 30.2 17.4534 30.2 17.4534 30.24ZM17.2934 30.56C17.2934 30.84 17.3334 30.36 17.2934 30.56V30.56ZM17.3734 30.84C17.3734 30.84 17.4134 30.92 17.3734 30.84V30.84ZM17.3734 30.96C17.4534 30.8 17.5334 31.16 17.3734 30.96V30.96ZM20.3334 1.28C20.3334 1.28 20.4134 1.32 20.3334 1.28V1.28ZM20.4134 2.4C20.4134 2.68 20.4534 2.2 20.4134 2.4V2.4ZM20.2134 3.68C20.2134 3.68 20.2534 3.72 20.2134 3.68V3.68ZM20.0534 5.16C19.9734 5.36 20.2534 5.08 20.0534 5.16V5.16ZM20.0134 5.32C20.0134 5.56 19.9734 5.6 19.9334 5.76C20.0934 5.76 20.0934 5.4 20.0134 5.32ZM20.0934 5.52C20.0934 5.88 20.2534 5.36 20.0934 5.52V5.52ZM20.0534 5.72C20.0934 5.84 20.0134 5.8 20.0134 5.96C20.1734 6.04 20.1734 5.72 20.0534 5.72ZM20.0934 6.04C20.0934 6.04 20.0934 6.04 20.0934 6C19.9334 6.08 20.0134 5.88 19.9334 5.84C19.8134 6.52 19.6934 7.08 19.6134 7.8C19.7734 7.8 19.5734 7.48 19.7734 7.52C19.7334 7.28 19.8134 7 19.8534 6.72C19.9734 6.48 19.8134 6.36 19.9734 6.2C19.9734 6.28 19.9734 6.56 20.0134 6.44C20.0134 6.28 20.0534 6.12 20.0934 6.04ZM20.0134 6.08C20.0134 6.12 19.9734 6.12 19.9334 6.12C19.9334 6.08 20.0134 6.08 20.0134 6.08ZM22.9734 6.04C23.0934 6.24 23.0934 5.84 22.9734 6.04V6.04ZM19.9334 6.84C19.9734 6.84 19.9734 6.84 19.9734 6.84C20.0134 6.6 19.9734 6.52 19.8534 6.72C19.8534 6.8 19.9334 6.8 19.9334 6.84ZM19.9334 6.84C19.8534 7 19.8134 7.16 19.8534 7.24C19.9334 7.16 19.9734 7.04 19.9334 6.84ZM19.7734 7.52C19.8134 7.64 19.8534 7.52 19.7734 7.52V7.52ZM19.6134 7.8C19.5734 7.96 19.4934 8.16 19.5334 8.28C19.5734 8.28 19.5734 8.28 19.5734 8.28C19.6134 8.24 19.5734 8.16 19.6134 8.16C19.6134 8.2 19.6934 8.28 19.5734 8.28C19.7334 8.36 19.4934 8.52 19.6134 8.6C19.6934 8.48 19.7734 8.16 19.6934 8.04C19.6134 8.2 19.6134 7.92 19.6134 7.8ZM19.7334 7.88C19.7334 7.88 19.7734 7.92 19.7334 7.88V7.88ZM19.6934 8C19.6934 8 19.7334 8.04 19.6934 8V8ZM19.5334 8.28C19.5334 8.28 19.5334 8.28 19.4934 8.28C19.4934 8.36 19.4534 8.44 19.4934 8.44C19.5334 8.4 19.5334 8.4 19.5334 8.28ZM19.4934 8.48C19.5734 8.48 19.5334 8.44 19.4934 8.44C19.4934 8.48 19.4934 8.48 19.4934 8.48ZM19.4934 8.48C19.4934 8.48 19.4934 8.48 19.4534 8.48C19.4934 8.68 19.3334 8.84 19.4534 8.92C19.4934 8.92 19.4934 8.92 19.4934 8.92C19.4934 8.72 19.5734 8.6 19.4934 8.48ZM19.4934 8.92C19.6134 8.96 19.3734 9.2 19.5334 9.24C19.5334 9.08 19.7334 8.84 19.5734 8.68C19.5334 8.72 19.5734 8.92 19.4934 8.92ZM19.4534 8.92C19.4534 8.92 19.4534 8.92 19.3734 8.92C19.4534 9.08 19.2934 9.24 19.3734 9.36C19.3734 9.2 19.4934 9.12 19.4534 8.92ZM22.4534 9.24C22.4534 9.36 22.4534 9.4 22.4534 9.44C22.5734 9.48 22.5734 9.2 22.4534 9.24ZM19.4534 9.36C19.4934 9.36 19.5334 9.36 19.5334 9.32C19.5334 9.32 19.4534 9.32 19.4534 9.36ZM19.2934 9.4C19.2934 9.44 19.2934 9.48 19.2934 9.48C19.3334 9.48 19.3734 9.48 19.3734 9.48C19.3734 9.48 19.3734 9.44 19.3734 9.4C19.3734 9.4 19.3334 9.4 19.2934 9.4ZM19.4534 9.48C19.4534 9.48 19.4934 9.56 19.4534 9.48V9.48ZM19.2934 10.08C19.3734 10.32 19.1334 10.44 19.2934 10.6C19.3734 10.2 19.3734 9.92 19.2934 9.6C19.2934 9.84 19.0934 10.16 19.2934 10.08C19.2934 10.08 19.3334 10.04 19.3334 10.08C19.3334 10.08 19.3334 10.08 19.2934 10.08ZM19.4534 9.64C19.4534 9.6 19.5334 9.64 19.4534 9.64V9.64ZM19.4534 9.64C19.3734 9.68 19.4534 9.68 19.4534 9.64V9.64ZM19.2134 10.28C19.2134 10.2 19.2934 10.28 19.2134 10.28V10.28ZM19.2134 10.28C19.0534 10.36 19.2934 10.6 19.2134 10.28V10.28ZM19.0934 10.6C19.0934 11 19.2534 10.44 19.0934 10.6V10.6ZM19.2134 10.64C19.2534 10.76 19.2134 10.84 19.2534 10.84C19.3334 10.8 19.2934 10.68 19.2134 10.64ZM19.0534 10.84C18.8934 11.04 19.2534 11 19.0534 10.84V10.84ZM19.2134 11.04C19.2134 11 19.2934 11.04 19.2134 11.04V11.04ZM19.2134 11.04C19.0534 11.08 19.2534 11.32 19.2134 11.04V11.04ZM19.0134 11.76C19.0134 11.84 19.0134 11.96 19.0534 11.96C19.1334 11.72 19.0534 11.56 19.0134 11.4C19.0534 11.4 19.0934 11.4 19.1334 11.4C19.1334 11.36 19.2134 11.24 19.0934 11.24C19.0934 11.28 19.0534 11.28 19.0534 11.24C19.0534 11.12 19.2134 11.08 19.0134 11.08C19.0534 11.4 18.8934 11.6 18.8534 11.84C19.0134 11.88 18.9734 11.76 19.0134 11.76C19.0134 11.76 19.0534 11.72 19.0534 11.76C19.0534 11.76 19.0534 11.76 19.0134 11.76ZM18.8534 11.28C18.8534 11.28 18.8934 11.32 18.8534 11.28V11.28ZM18.8534 12.04C18.9734 12.24 18.9734 11.84 18.8534 12.04V12.04ZM18.9734 12.12C18.9734 12.56 19.0934 12.04 18.9734 12.12V12.12ZM18.7734 12.56C18.8134 12.56 18.8134 12.56 18.8134 12.56C18.8134 12.44 18.8934 12.28 18.8934 12.12C18.7734 12.2 18.8134 12.44 18.7734 12.56ZM24.5334 12.28C24.5734 12.28 24.5734 12.28 24.5734 12.28C24.5734 12.28 24.5734 12.28 24.5734 12.24L24.5334 12.28ZM18.9734 12.72C18.9734 12.6 19.0534 12.44 18.8934 12.44C18.9734 12.56 18.7734 12.84 18.9734 12.72ZM18.7734 12.56C18.7734 12.6 18.7734 12.6 18.7734 12.6C18.7734 12.6 18.7334 12.56 18.7734 12.56ZM18.7734 12.6C18.7734 12.68 18.6534 12.8 18.7734 12.8C18.8134 12.8 18.8934 12.6 18.7734 12.6ZM18.7334 12.96C18.6534 12.76 18.8534 12.96 18.7334 12.96V12.96ZM18.8134 12.96C18.8134 13.32 18.9734 12.8 18.8134 12.96V12.96ZM18.7334 12.96C18.6534 12.96 18.6534 13.08 18.7334 13.08C18.8134 13.04 18.7734 13.04 18.7334 12.96ZM18.7734 13.2C18.7734 13.56 18.8934 13.04 18.7734 13.2V13.2ZM18.6134 13.32C18.6134 13.32 18.6534 13.4 18.6134 13.32V13.32ZM18.6134 13.52C18.5734 13.32 18.7734 13.52 18.6134 13.52V13.52ZM18.6134 13.52C18.6134 13.52 18.6134 13.52 18.5734 13.52C18.5734 13.92 18.3734 14.28 18.4934 14.6C18.4934 14.48 18.5334 14.52 18.5734 14.52C18.5734 14.48 18.5734 14.44 18.5734 14.4C18.4934 14.12 18.6534 13.92 18.6134 13.52ZM18.6534 13.96C18.6134 13.68 18.8134 13.88 18.6534 13.96V13.96ZM18.6534 13.96C18.6534 13.96 18.6534 13.96 18.6134 13.96C18.6534 14.16 18.5734 14.2 18.5734 14.4C18.6134 14.4 18.6134 14.28 18.6534 14.28C18.6134 14.24 18.7334 14.16 18.6534 13.96ZM28.8934 14.48C28.8934 14.76 28.9334 14.28 28.8934 14.48V14.48ZM18.4934 14.6C18.5334 14.68 18.5734 14.6 18.4934 14.6V14.6ZM18.3734 14.64C18.4134 14.76 18.2534 14.92 18.3734 14.96C18.4134 14.92 18.5334 14.68 18.3734 14.64ZM28.8534 14.72C28.8534 14.72 28.8934 14.76 28.8534 14.72V14.72ZM18.5334 14.88C18.5334 14.88 18.5734 14.92 18.5334 14.88V14.88ZM28.8134 14.84C28.7334 15 28.9334 14.84 28.8134 14.84V14.84ZM18.4134 15.08C18.4134 15.48 18.5734 14.96 18.4134 15.08V15.08ZM18.2934 15.64C18.2934 15.6 18.2934 15.56 18.2934 15.44C18.3334 15.48 18.3734 15.48 18.4134 15.48C18.2934 15.36 18.4134 15.12 18.2934 15.08C18.3334 15.32 18.1334 15.48 18.2534 15.64C18.2934 15.64 18.2934 15.64 18.2934 15.64ZM18.2934 15.64C18.3334 15.72 18.2534 15.88 18.3334 15.88C18.3734 15.84 18.4934 15.6 18.3334 15.56C18.3734 15.6 18.3334 15.64 18.2934 15.64ZM18.2534 15.64C18.2534 15.64 18.2534 15.64 18.1734 15.64C18.1734 15.84 18.0934 16.16 18.1334 16.28C18.1734 16.08 18.2934 15.92 18.2534 15.64ZM18.2934 15.96C18.3734 16.16 18.3734 15.8 18.2934 15.96V15.96ZM25.3334 16.12C25.2134 16.2 25.0534 16.36 24.9734 16.56C25.2134 16.56 25.1334 16.32 25.2934 16.28C25.2934 16.2 25.3334 16.16 25.3334 16.12ZM18.1734 16.56C18.2534 16.56 18.2534 16.56 18.2534 16.56C18.2534 16.44 18.3734 16.28 18.2534 16.16C18.2534 16.32 18.1734 16.4 18.1734 16.56ZM17.9334 16.32C17.9334 16.32 18.0134 16.36 17.9334 16.32V16.32ZM18.0934 16.36C18.0934 16.32 18.1734 16.36 18.0934 16.36V16.36ZM18.0934 16.36C18.0534 16.4 17.9334 16.92 18.0534 16.84C18.0534 16.6 18.1734 16.8 18.1734 16.84C18.1734 16.76 18.2534 16.64 18.2534 16.6C18.2534 16.6 18.1734 16.6 18.1734 16.56C18.0934 16.68 18.0934 16.52 18.0934 16.36ZM24.8134 16.4C24.8134 16.4 24.8534 16.44 24.8134 16.4V16.4ZM18.0934 17C18.0934 17 18.1334 17.04 18.0934 17V17ZM18.0534 17.08C18.0534 17.04 18.0534 17 17.9334 17C17.9334 17.12 17.8534 17.16 17.9334 17.28C18.0934 17.32 17.9334 17.04 18.0534 17.08ZM18.0534 17.08C18.0534 17.16 18.0534 17.28 18.0934 17.28C18.0534 17.16 18.2534 17.08 18.0534 17.08ZM17.9334 17.28C17.8934 17.32 17.8534 17.48 17.8534 17.56C18.0134 17.48 18.0534 17.56 18.0534 17.4C18.0534 17.32 17.9334 17.52 17.9334 17.28ZM17.9334 17.64C18.0534 17.64 18.0534 17.76 18.0534 17.64C18.0534 17.6 18.0134 17.6 17.9334 17.64ZM17.8534 17.72C17.8534 17.72 17.8934 17.76 17.8534 17.72V17.72ZM17.8934 18C17.8934 17.88 17.8934 17.8 17.8134 17.76C17.8134 17.84 17.8134 17.96 17.8134 18.04C17.8534 18.04 17.8534 18 17.8934 18ZM17.9334 17.96C17.9334 17.96 18.0134 18 17.9334 17.96V17.96ZM17.8934 18C17.9334 18.08 18.0134 18 17.8934 18V18ZM17.8134 18.04C17.7734 18.08 17.8134 18.08 17.8134 18.04V18.04ZM23.4534 18.08C23.4534 18.08 23.4134 18.08 23.3734 18.08C23.3734 18.12 23.4534 18.12 23.4534 18.12C23.4534 18.12 23.4534 18.12 23.4534 18.08ZM17.8934 18.24C17.8534 18.04 18.0534 18.24 17.8934 18.24V18.24ZM17.8934 18.24C17.8534 18.24 17.8534 18.2 17.7734 18.2C17.8134 18.36 17.6134 18.52 17.7734 18.6C17.7734 18.52 17.7734 18.36 17.8534 18.36C17.8134 18.72 17.8134 19.2 17.8934 18.6C17.8534 18.44 18.0134 18.32 17.8934 18.24ZM17.8134 18.32C17.8134 18.32 17.8534 18.36 17.8134 18.32V18.32ZM17.6534 18.68C17.6934 18.8 17.5334 18.96 17.6534 19C17.6534 18.92 17.8134 18.72 17.6534 18.68ZM17.6134 19.24C17.6134 19.24 17.6134 19.24 17.5734 19.24C17.6134 19.52 17.3734 19.96 17.5734 19.92C17.5334 19.72 17.6534 19.32 17.8134 19.24C17.6534 19.24 17.9334 19.04 17.7734 19.04C17.6934 19.2 17.6934 19.08 17.6134 19.04C17.6134 19.16 17.6134 19.2 17.6134 19.24C17.6534 19.24 17.6534 19.24 17.6534 19.24C17.6534 19.24 17.6934 19.2 17.6934 19.24C17.6934 19.28 17.6534 19.32 17.6134 19.32C17.6134 19.32 17.6134 19.28 17.6134 19.24ZM21.2534 19.32C21.1334 19.4 20.9734 19.4 20.8934 19.52C21.0134 19.48 21.2534 19.52 21.2534 19.32ZM17.6534 19.56C17.6534 19.88 17.6934 19.4 17.6534 19.56V19.56ZM17.6134 20C17.6134 20 17.6534 20.04 17.6134 20V20ZM17.5734 20.04C17.6134 20.2 17.5734 20.24 17.5334 20.28C17.6534 20.4 17.6534 20.04 17.5734 20.04ZM17.4134 20.2C17.5334 20.4 17.5334 20 17.4134 20.2V20.2ZM17.4134 20.36C17.4134 20.36 17.4534 20.4 17.4134 20.36V20.36ZM17.2134 20.44C17.2134 20.44 17.2934 20.48 17.2134 20.44V20.44ZM17.4134 20.44C17.4134 20.4 17.5334 20.44 17.4134 20.44V20.44ZM17.4134 20.44C17.3734 20.48 17.4134 20.48 17.4134 20.44V20.44ZM17.4534 20.6C17.4534 20.6 17.4534 20.6 17.4534 20.52C17.3734 20.52 17.3334 20.76 17.4134 20.76C17.4134 20.72 17.4134 20.6 17.4534 20.6ZM17.1334 21C17.1334 21 17.1734 21.08 17.1334 21V21ZM17.3334 21.24C17.2934 21.24 17.2934 21.56 17.3334 21.48C17.3334 21.44 17.3334 21.36 17.3334 21.24ZM17.1334 21.44C17.2134 21.64 17.2134 21.24 17.1334 21.44V21.44ZM16.9734 22.64C16.9734 22.64 17.0534 22.68 16.9734 22.64V22.64ZM16.9334 23.32C16.9334 23.32 16.9734 23.36 16.9334 23.32V23.32ZM16.8934 23.88C16.8934 23.84 16.9734 23.88 16.8934 23.88V23.88ZM16.8934 23.88C16.8534 23.96 16.8934 23.96 16.8934 23.88V23.88ZM21.0534 24.44C21.1734 24.6 21.1734 24.24 21.0534 24.44V24.44ZM16.8134 24.84C16.8134 24.84 16.8534 24.92 16.8134 24.84V24.84ZM22.0934 25.2C22.0134 25.24 22.0934 25.24 22.0934 25.2V25.2ZM21.9334 25.28C21.9334 25.28 21.9734 25.32 21.9334 25.28V25.28ZM22.0134 25.32C22.0134 25.32 22.0934 25.4 22.0134 25.32V25.32ZM22.2134 25.52C22.2134 25.52 22.2534 25.56 22.2134 25.52V25.52ZM16.7334 25.64C16.7334 25.64 16.8134 25.68 16.7334 25.64V25.64ZM22.5734 25.76C22.4934 25.68 22.4534 25.64 22.3734 25.56C22.4134 25.72 22.4534 25.76 22.5734 25.76ZM22.5734 25.76C22.5734 25.8 22.6134 25.8 22.6134 25.8C22.6534 25.76 22.6134 25.76 22.5734 25.76ZM22.6134 25.8C22.6134 25.88 22.6934 25.88 22.6934 25.88C22.6934 25.8 22.6534 25.8 22.6134 25.8ZM22.6934 25.88C22.7334 25.96 22.8134 25.88 22.6934 25.88V25.88ZM22.9334 25.96C22.8134 25.92 22.8934 26.04 22.9334 26.04C22.9334 26.04 22.9334 26 22.9334 25.96ZM22.9334 26.04C22.9734 26.16 23.0534 26.04 22.9334 26.04V26.04ZM23.0934 26.16C23.1734 26.36 23.1734 25.96 23.0934 26.16V26.16ZM16.7334 26.2C16.7334 26.48 16.8134 26 16.7334 26.2V26.2ZM16.7334 26.44C16.7334 26.44 16.8134 26.48 16.7334 26.44V26.44ZM16.7334 27.16C16.7334 27.44 16.8134 26.96 16.7334 27.16V27.16ZM16.7334 27.4C16.7334 27.4 16.8134 27.44 16.7334 27.4V27.4ZM16.9334 29.04C16.8134 29.24 17.1334 29.16 16.9334 29.04V29.04ZM17.0534 29.88C17.1334 30.08 17.1334 29.72 17.0534 29.88V29.88ZM33.7759 13.4C33.0159 13.88 32.3359 14.76 31.7359 15.6C31.8559 15.64 31.8959 15.48 31.8959 15.6C31.0959 16.8 30.3759 17.8 29.8959 19.56C29.4559 20.2 29.4959 21.08 29.1759 21.8C29.1759 21.72 29.1759 21.64 29.0959 21.64C28.6159 23.32 29.6959 24.52 30.7359 25.24C30.9759 25.28 31.2159 25.28 31.3759 25.44C31.9759 25.48 32.7759 25.44 33.1759 25C34.5759 24.12 35.5759 22.88 36.2959 21.32C36.6959 20.88 36.8959 20.04 37.3359 19.76C37.2559 21.72 37.3759 23.6 37.8159 25.28C37.6959 25.08 37.6959 24.8 37.5759 24.68C37.8959 25.92 38.5359 26.84 39.7759 27.08C39.9759 27 40.2159 26.96 40.2959 26.92C40.4959 26.36 39.7359 26.48 39.7759 25.96C39.7359 25.8 39.8959 25.88 39.8559 25.72C39.5759 23.32 39.7759 19.96 39.9759 16.88C39.9759 16.56 40.0159 16.16 40.0159 15.84C40.0559 14.96 40.2159 14.2 40.1359 13.44C40.0159 13.4 39.8959 13.4 39.8559 13.2C39.2959 13.04 38.4159 12.96 37.9759 13.28C37.8559 13.2 37.7359 13 37.6559 12.84C37.2159 12.32 35.9359 12.32 35.2959 12.48C35.2959 12.52 35.2959 12.6 35.2559 12.6C34.9359 12.6 34.7759 12.6 34.5759 12.6C34.5359 12.76 34.4559 12.84 34.3359 12.96C34.2559 12.92 34.4559 12.8 34.2559 12.8C34.2159 13.08 33.9759 13.04 33.8159 13.24C33.9759 13.24 33.8559 13.44 33.7759 13.4ZM36.7759 13.44C36.9359 13.48 36.9359 13.44 37.0959 13.44C37.0959 13.48 37.0159 13.52 36.9759 13.52C37.1759 13.64 37.4959 13.44 37.6959 13.48C37.4159 14.44 36.9759 15.24 36.6559 16.2C36.2559 16.56 36.2159 17.12 35.8159 17.48C35.8159 17.52 35.8959 17.52 35.8959 17.6C35.7359 17.6 35.6959 17.76 35.6959 17.96C35.5759 18 35.5759 17.88 35.5359 18C35.2959 18.72 34.7759 19.08 34.5359 19.76C34.4959 19.76 34.4559 19.76 34.3759 19.76C34.3759 19.88 34.3759 19.92 34.3759 19.96C33.5759 21.16 32.8159 22.44 31.7359 23.52C31.6559 23.52 31.4959 23.56 31.3759 23.64C31.1359 22.88 31.4559 22.2 31.6559 21.6C31.6159 21.56 31.6159 21.48 31.5759 21.48C31.6959 21 31.9359 20.6 31.9759 20.04C32.5759 18.8 33.2559 17.64 33.8959 16.52C34.3759 15.96 34.7759 15.36 35.3359 14.92C35.6959 14.52 35.8159 14 36.1759 13.72C36.0559 13.44 36.2959 13.2 36.6959 13.24C36.6959 13.32 36.7759 13.32 36.7759 13.44ZM37.7359 13.32C37.7359 13.28 37.7359 13.28 37.7359 13.24C37.8159 13.24 37.8159 13.24 37.8559 13.24C37.8559 13.28 37.8559 13.28 37.8559 13.32C37.8159 13.32 37.8159 13.32 37.7359 13.32ZM33.4959 13.68C33.4959 13.64 33.4959 13.64 33.4959 13.56C33.6159 13.52 33.6159 13.72 33.4959 13.68ZM33.2559 13.96C33.2559 13.92 33.2959 13.96 33.2559 13.96V13.96ZM33.0559 14.2C33.0159 14.2 33.0559 14.24 33.0559 14.2V14.2ZM32.6959 14.52C32.6959 14.48 32.7759 14.52 32.6959 14.52V14.52ZM32.5759 14.76C32.4159 14.68 32.6559 14.64 32.6559 14.6C32.7759 14.64 32.5759 14.68 32.5759 14.76ZM32.2959 15.08C32.2959 15 32.2959 14.96 32.2959 14.96C32.3759 14.92 32.3759 15.12 32.2959 15.08C32.2159 15.16 32.1759 15.24 32.0959 15.24C32.0959 15.16 32.1359 15.08 32.2959 15.08ZM31.9759 15.48C31.9359 15.44 31.9759 15.4 31.9759 15.36C32.0559 15.4 31.9759 15.44 31.9759 15.48ZM36.4959 16.64C36.5359 16.8 36.5359 16.52 36.4959 16.64V16.64ZM36.2159 17.12C36.2159 17.08 36.2159 17 36.2959 17C36.2959 17.04 36.2959 17.12 36.2159 17.12ZM36.1359 17.32C36.0559 17.56 36.1359 17.16 36.1359 17.32V17.32ZM35.9359 17.64C35.9359 17.6 35.9759 17.64 35.9359 17.64V17.64ZM35.6959 18.12C35.5359 18 35.8159 17.96 35.7759 17.8C35.9759 17.84 35.6959 18.04 35.6959 18.12ZM34.5759 19.92C34.8159 19.4 35.0959 18.84 35.4959 18.44C35.2159 18.92 34.9359 19.44 34.5759 19.92C34.5759 20 34.4959 20 34.4559 20.04C34.4559 20.12 34.4559 20.2 34.3759 20.16V20.12C34.3759 20.12 34.4559 20.12 34.3759 20.04C34.4559 20.04 34.4559 20.04 34.4559 20.04C34.4559 19.96 34.5359 19.96 34.5359 19.92C34.5359 19.92 34.5359 19.92 34.5759 19.92ZM29.7759 20C29.7359 20 29.7359 19.96 29.7359 19.92C29.7759 19.88 29.7759 19.92 29.7759 19.96V20ZM34.2159 20.52C34.2159 20.36 34.2559 20.24 34.3759 20.24C34.2959 20.28 34.2959 20.48 34.2159 20.52C34.2159 20.52 34.2159 20.52 34.1359 20.52C34.1359 20.64 34.1359 20.68 34.0559 20.68C34.0559 20.72 34.0559 20.76 34.0159 20.76V20.72C34.0159 20.68 34.0559 20.68 34.0159 20.68C34.0559 20.68 34.0559 20.68 34.0559 20.68C34.0559 20.64 34.0559 20.64 34.0559 20.6C34.0959 20.6 34.0959 20.6 34.0959 20.52H34.1359C34.1359 20.52 34.1359 20.48 34.2159 20.52ZM33.7759 21.16C33.7759 21 33.8959 20.92 33.9759 20.84C34.0159 20.92 33.8159 21.08 33.7759 21.16C33.7759 21.2 33.7759 21.2 33.7359 21.2C33.6559 21.2 33.7359 21.24 33.7359 21.2C33.7359 21.16 33.7359 21.16 33.7759 21.16ZM29.4159 21.24C29.4159 21.2 29.4559 21.2 29.4159 21.24C29.3359 21.24 29.4159 21.32 29.4159 21.24ZM33.6159 21.32C33.6159 21.24 33.7359 21.32 33.6159 21.32C33.6559 21.36 33.6159 21.4 33.6159 21.44C33.5359 21.4 33.5759 21.36 33.6159 21.32ZM33.4159 21.64C33.4159 21.56 33.4959 21.56 33.4959 21.48C33.5759 21.48 33.5359 21.6 33.4959 21.64C33.4959 21.64 33.4959 21.64 33.4159 21.64C33.4959 21.72 33.3759 21.68 33.3759 21.8C33.2959 21.72 33.4159 21.64 33.4159 21.64ZM33.2559 21.92C33.1759 21.92 33.2559 21.88 33.2559 21.84C33.3359 21.84 33.2959 21.88 33.2559 21.92ZM33.0559 22.16C33.0559 22.16 33.0959 22.16 33.0559 22.16V22.16ZM29.0559 22.2C29.0559 22.16 29.0959 22.2 29.0559 22.2V22.2ZM32.8959 22.36C32.8959 22.32 32.9359 22.28 32.9359 22.28C33.0159 22.28 33.0159 22.32 32.9359 22.36C32.9359 22.36 32.9359 22.36 32.8959 22.36C32.8959 22.4 32.8559 22.36 32.8959 22.36ZM29.0559 22.44C29.0559 22.76 29.1759 22.32 29.0559 22.44V22.44ZM37.8559 25.4C37.8159 25.4 37.8559 25.44 37.8559 25.4V25.4ZM37.8559 25.48C37.8559 25.44 37.8959 25.48 37.8559 25.48V25.48ZM34.4959 12.6C34.3759 12.56 34.3359 12.6 34.3359 12.68C34.3759 12.72 34.3759 12.72 34.4959 12.72C34.4959 12.68 34.4959 12.68 34.4959 12.6ZM34.0559 12.92C34.0559 12.92 34.0959 12.96 34.0559 12.92V12.92ZM33.7759 13.4C33.5759 13.44 33.8159 13.2 33.7759 13.4V13.4ZM36.7759 13.44C36.8559 13.48 36.8959 13.56 36.7359 13.56C36.7359 13.52 36.7359 13.44 36.7759 13.44ZM31.6959 15.64C31.6959 15.68 31.6159 15.72 31.6959 15.72C31.6959 15.68 31.7359 15.64 31.6959 15.64ZM31.4959 15.92V15.96H31.5759V15.92H31.4959ZM31.2159 16.28V16.32C31.2559 16.32 31.2559 16.32 31.3359 16.32V16.28C31.2559 16.28 31.2559 16.28 31.2159 16.28ZM31.0159 16.6C31.0959 16.6 31.1359 16.6 31.1359 16.56C31.0959 16.56 31.0159 16.56 31.0159 16.6ZM30.5359 17.4C30.5359 17.4 30.4959 17.56 30.5359 17.6C30.6159 17.56 30.6559 17.4 30.5359 17.4ZM30.4559 17.72C30.4959 17.84 30.4959 17.56 30.4559 17.72V17.72ZM30.2959 18C30.3759 18.08 30.4159 17.84 30.2959 18V18ZM30.1759 18.24C30.2159 18.36 30.2159 18.08 30.1759 18.24V18.24ZM30.1759 18.32C30.1759 18.36 30.0559 18.44 30.1759 18.44C30.1759 18.36 30.2159 18.32 30.1759 18.32ZM30.0159 18.6C30.0559 18.76 30.0559 18.48 30.0159 18.6V18.6ZM29.8959 19C29.8959 19 29.9359 19.04 29.8959 19V19ZM29.7759 19.08C29.8159 19.2 29.6559 19.32 29.7759 19.44C29.7359 19.32 29.9759 19.16 29.7759 19.08ZM29.5759 19.76C29.5759 19.8 29.4959 19.96 29.5759 20C29.5359 19.92 29.7359 19.76 29.5759 19.76ZM29.4159 20.44C29.4959 20.44 29.5359 20.2 29.4559 20.16C29.4559 20.24 29.4159 20.28 29.4159 20.44ZM29.4159 20.44C29.3359 20.48 29.3359 20.52 29.3359 20.6C29.4559 20.64 29.4159 20.48 29.4159 20.44ZM37.2159 20.6C37.2159 20.64 37.2159 20.6 37.2159 20.6V20.6ZM29.3359 20.76C29.3359 20.76 29.3359 20.76 29.4159 20.76C29.3359 20.72 29.4159 20.6 29.2959 20.64C29.2959 20.72 29.3359 20.72 29.3359 20.76ZM29.3359 20.76H29.2959C29.2959 20.88 29.1759 21 29.2959 21.08C29.2959 20.92 29.4159 20.92 29.3359 20.76ZM37.1759 20.92C37.1759 20.92 37.2159 20.96 37.1759 20.92V20.92ZM37.2159 21.12C37.2159 21.16 37.2159 21.4 37.2559 21.32C37.2559 21.2 37.2559 20.96 37.2159 21.12ZM29.2159 21.12C29.2559 21.24 29.2559 20.96 29.2159 21.12V21.12ZM29.2159 21.2C29.0959 21.32 29.1759 21.48 29.0959 21.6C29.2559 21.6 29.2559 21.32 29.2159 21.2ZM37.2159 21.48C37.2159 21.56 37.2159 21.48 37.2159 21.48V21.48ZM37.2559 23.04C37.2559 23.04 37.3359 23.08 37.2559 23.04V23.04ZM37.3359 23.24C37.3359 23.4 37.3759 23.04 37.3359 23.24V23.24ZM37.3359 23.4C37.3359 23.36 37.3759 23.4 37.3359 23.4V23.4ZM37.3759 23.52C37.3759 23.84 37.4559 23.4 37.3759 23.52V23.52ZM37.4159 23.88C37.4559 24.04 37.4559 23.76 37.4159 23.88V23.88ZM37.4559 24.12C37.4959 24.28 37.4959 24 37.4559 24.12V24.12ZM37.4559 24.32C37.4959 24.48 37.4959 24.2 37.4559 24.32V24.32ZM39.8159 25.92C39.8159 26.04 39.8559 26.12 39.9759 26.16C39.8959 26.12 39.9759 25.92 39.8159 25.92ZM56.7394 10.08C56.7794 9.84 56.6594 10.04 56.5394 10.08C56.1394 9.84 55.4194 9.64 54.9794 9.84C54.9394 9.64 54.7394 9.84 54.6194 9.68C54.4594 9.84 54.5394 9.92 54.4594 10.08C54.3794 9.96 54.4994 9.8 54.3394 9.84C54.2594 10.16 54.5794 10.32 54.3794 10.56C54.3794 10.68 54.3394 10.76 54.2594 10.68C54.2994 10.64 54.2594 10.52 54.3794 10.56C54.3794 10.52 54.3794 10.4 54.3394 10.4C54.2194 10.6 54.0594 10.68 54.2994 10.84C54.0594 11.28 53.3794 11.52 53.4194 12.08C53.2994 12.04 53.3394 12.24 53.2594 12.24C53.1794 12.12 53.3794 12.08 53.2594 12.04C53.1794 12.08 53.1394 12.12 53.0994 12.12C53.0994 12.2 53.0994 12.2 53.0994 12.24C53.1394 12.24 53.1794 12.32 53.1394 12.32C53.0994 12.32 53.0994 12.28 53.0994 12.24C52.8994 12.28 53.0994 12.44 52.9394 12.56C52.9394 12.48 52.9394 12.36 52.8994 12.36C52.8994 12.52 52.6994 12.48 52.8194 12.68C52.6594 12.52 52.6594 12.8 52.5394 12.8C52.6194 13.04 52.4594 13.24 52.3794 13.4C52.3794 13.28 52.4194 13.16 52.2994 13.2C52.0994 13.92 51.5794 14.24 51.2594 14.88C51.1794 14.88 51.1794 14.76 51.1394 14.76C51.0994 14.88 51.2594 14.96 51.1394 15C51.1394 14.92 51.0194 14.92 51.0194 14.96C51.1394 14.96 51.1394 15.24 50.9794 15.16C51.0194 15.36 50.8994 15.4 50.8594 15.24C50.7394 15.32 50.9394 15.48 50.7794 15.6C50.6994 15.6 50.7394 15.44 50.6994 15.44C50.6194 15.56 50.6994 15.8 50.5394 15.6C50.4994 15.84 50.2194 15.96 50.2594 16.16C50.2194 16.12 50.1794 16.12 50.1394 16.12C50.0594 16.2 50.0594 16.28 50.0594 16.52C50.0194 16.52 49.9794 16.52 49.9794 16.52C49.9794 16.56 49.9394 16.56 49.9394 16.52C49.8194 16.52 49.8194 16.6 49.7794 16.6C49.8194 16.88 49.5794 16.92 49.5394 17.12C49.5394 17.08 49.5394 17.04 49.4994 17.04C49.4994 17.12 49.4994 17.24 49.4594 17.24C49.4194 17.24 49.4194 17.16 49.4194 17.12C49.0994 17.24 49.2994 17.56 49.0594 17.64C49.2194 17.56 49.0994 17.4 49.0194 17.32C49.0594 17.64 48.9794 18 48.6994 18.2C48.5794 18.12 48.5394 18.04 48.4594 18.12C48.5794 18.36 48.2994 18.32 48.2994 18.52C48.3394 18.52 48.3794 18.44 48.3794 18.56C48.3394 18.56 48.2994 18.56 48.2994 18.52C48.2194 18.6 48.2594 18.76 48.0594 18.68C48.0194 18.84 48.0594 18.84 48.0194 19C47.8194 18.92 47.6594 19.24 47.5394 19.4C47.6194 19.24 47.6594 19.52 47.6194 19.52C47.5394 19.52 47.5794 19.44 47.5394 19.4C47.4194 19.44 47.3794 19.48 47.3394 19.52C47.4994 19.48 47.4194 19.64 47.4194 19.72C47.3394 19.72 47.3394 19.8 47.2994 19.8C47.2994 19.68 47.2594 19.64 47.1794 19.56C47.0994 19.68 47.1794 19.72 47.1394 19.88C47.1794 19.88 47.1794 19.96 47.1394 19.96C47.0994 19.96 47.0994 19.96 47.0994 19.92C47.0594 19.92 47.0194 19.92 47.0194 19.92C46.8594 20.12 46.6594 20.48 46.5394 20.4C46.5394 20.6 46.2994 20.6 46.4194 20.84C46.3394 20.84 46.3394 20.72 46.2994 20.72C46.0994 21 45.7394 21.12 45.7394 21.56C45.7394 21.44 45.6994 21.4 45.6594 21.4C45.6194 21.56 45.4594 21.64 45.5794 21.8C45.4594 21.8 45.4594 21.64 45.3394 21.68C45.3394 21.72 45.2594 21.72 45.2594 21.8C45.3394 21.8 45.3394 21.88 45.2594 21.88C45.2594 21.84 45.2594 21.84 45.2594 21.8C45.0994 22.12 44.6994 22.44 44.3794 22.52C44.3794 22.08 44.4994 21.6 44.3794 21.24C44.4194 21.2 44.4994 21.16 44.4994 21.08C44.6194 20.2 44.7394 19.32 44.9794 18.6C45.1394 17.48 45.4594 16.4 45.5794 15.2C45.4594 15.2 45.4194 15.16 45.4194 15.12C45.4994 14.6 45.1394 13.96 44.8594 13.56C44.6594 13.64 44.3794 13.2 44.0594 13.44C44.0194 13.32 44.1394 13.2 43.9394 13.16C43.9394 13.32 43.7394 13.28 43.6594 13.24C43.5394 13.32 43.5794 13.4 43.5394 13.44C43.4194 13.44 43.4594 13.28 43.2594 13.32C43.1794 13.44 43.1794 13.44 43.0194 13.4C42.9794 13.48 43.1794 13.52 43.0194 13.56C42.8594 13.64 42.9394 13.48 42.8194 13.48C42.7794 13.56 42.9394 13.56 42.8594 13.72C43.0194 13.68 43.0194 13.68 43.0594 13.8C42.8594 15 42.5794 15.8 42.4594 17.04C42.7794 16.2 42.7394 15 43.1794 14.2C42.6994 17.32 41.8994 19.32 41.9794 22.64C42.3794 23.72 43.2194 24.36 44.4594 24.6C44.5394 24.6 44.5394 24.52 44.6994 24.56C44.7794 24.56 44.7794 24.6 44.8994 24.6C47.0994 23.72 48.2594 21.68 49.8194 20.12C49.7794 20.2 49.8194 20.24 49.9394 20.24C49.9794 19.76 50.3794 19.32 50.6594 19.24C49.7394 21.16 49.0994 23.04 48.3394 25.08C48.2594 25.44 48.1394 25.96 47.8594 26.36C47.8994 26.76 47.5794 27.56 47.3794 27.92C47.4194 27.92 47.4994 27.96 47.4994 28.08C47.3794 28.12 47.2594 28.16 47.2594 28.32C47.3794 28.4 47.1794 29.16 47.0194 29.08C46.9394 29.24 47.0994 29.16 47.0994 29.28C46.6994 29.72 46.8994 30.56 46.4594 31.08C46.5394 31.64 46.2994 31.76 46.3794 32.16C46.3394 32.16 46.2994 32.16 46.2194 32.16C46.3394 32.72 45.9794 33 46.0594 33.68C45.9394 33.68 45.8994 33.68 45.8994 33.72C46.0594 34.04 45.7394 34.56 45.8594 35.04C45.5794 35.76 45.8594 36.76 45.8594 37.52C45.4994 36.72 45.6194 35.56 45.4994 34.84C45.3394 36 45.6194 37.28 45.8994 38.2C45.8594 38.12 45.9394 38.04 45.9794 38.16C45.9794 38.24 45.9394 38.24 45.8994 38.2C46.3394 39.12 47.1794 39.36 47.8194 40.12C47.8994 40.08 48.0194 40.04 48.0994 40.16C48.1394 40.04 48.4594 40.16 48.5794 40.32C48.5394 40.04 48.7794 40.12 48.9794 40.08C48.9794 39.92 48.8594 39.92 49.0194 39.88C49.0994 39.88 49.0994 39.96 49.2594 39.96C49.2594 39.8 49.2994 39.64 49.3394 39.4C48.5394 37.68 49.2194 35.48 49.3394 33.72C49.6594 33.36 49.6594 32.76 49.6994 32.36C49.7394 32.36 49.7794 32.28 49.8194 32.24C49.6994 31.76 50.2194 31.44 50.1394 30.8C50.4194 30.44 50.4594 29.96 50.4994 29.52C50.6194 29.56 50.8594 29 50.6994 28.92C50.8994 28.88 50.8994 28.6 50.8994 28.4C51.0194 28.12 51.1794 27.72 51.2594 27.24C51.6594 26.28 51.9794 25.08 52.3794 24.28C52.3394 24.28 52.2994 24.24 52.2994 24.2C52.4594 24.2 52.4594 23.96 52.4194 23.84C52.4594 23.84 52.4594 23.88 52.5394 23.88C54.0194 19.56 56.1794 15.64 57.9794 11.28C57.9394 11.24 57.8594 11.24 57.8594 11.16C57.8994 10.76 57.5794 10.64 57.4994 10.32C57.3794 10.28 57.1794 10.2 57.0994 10.04C56.9394 9.96 56.8594 10.08 56.7394 10.08C56.7394 10.12 56.6594 10.12 56.7394 10.08ZM54.5794 10.12C54.5394 10.12 54.5794 10.16 54.5794 10.12V10.12ZM53.3394 12.56C53.1794 12.52 53.2994 12.32 53.4194 12.36C53.3794 12.44 53.3394 12.48 53.3394 12.56ZM53.1794 12.6C53.1394 12.6 53.1794 12.68 53.1794 12.6V12.6ZM52.6194 12.92C52.6594 13.04 52.6994 12.72 52.6194 12.92V12.92ZM52.8594 13.08C52.7794 13.04 52.8594 13 52.8594 12.96C52.9394 13 52.8594 13.04 52.8594 13.08ZM52.6594 13.24C52.6194 13.24 52.6594 13.28 52.6594 13.24V13.24ZM52.4594 13.48C52.4594 13.44 52.5394 13.44 52.4594 13.48C52.3794 13.52 52.4594 13.52 52.4594 13.48ZM51.9794 14.12C52.0594 14 52.0594 13.88 52.2194 13.88C52.1394 13.96 52.1394 14.12 51.9794 14.12ZM43.0994 14.12C43.0594 14.12 43.0994 14.16 43.0994 14.12V14.12ZM51.8594 14.36C51.8594 14.28 51.8594 14.24 51.8994 14.2C51.9394 14.2 51.8994 14.28 51.8994 14.36C51.8594 14.36 51.8594 14.36 51.8594 14.36C51.8194 14.4 51.8194 14.52 51.6994 14.48C51.6594 14.36 51.6994 14.28 51.8594 14.36ZM51.6194 14.72C51.4994 14.68 51.6194 14.64 51.6194 14.6C51.6994 14.64 51.6194 14.68 51.6194 14.72ZM51.3794 14.96C51.4194 14.92 51.3794 14.76 51.4994 14.84C51.4594 14.88 51.4594 15 51.3794 14.96C51.3794 15 51.3794 15 51.3394 15C51.3394 15.08 51.2594 15.12 51.2594 15.16C51.1794 15.16 51.2194 15.08 51.2594 15C51.2594 15 51.2594 15 51.3394 15C51.3394 14.96 51.3394 14.96 51.3794 14.96ZM51.1394 15.24C51.1394 15.2 51.1794 15.2 51.1394 15.24C51.1794 15.4 51.0194 15.4 51.0194 15.48C50.8994 15.44 51.0194 15.24 51.1394 15.24ZM43.0594 15.92C42.8194 15.84 43.0594 15.6 43.0994 15.48C43.1794 15.64 43.0194 15.8 43.0594 15.92ZM50.6594 15.88C50.6994 15.84 50.6594 15.68 50.7794 15.72C50.7794 15.84 50.7394 15.88 50.6594 15.88ZM42.8594 16.32C42.9394 16.2 42.9794 16.16 42.9794 15.96C43.0594 16.04 43.0194 16.36 42.8594 16.32ZM50.4994 16.08C50.4594 16.08 50.4994 16.12 50.4994 16.08V16.08ZM50.1394 16.56C50.0594 16.56 50.1394 16.6 50.1394 16.56V16.56ZM50.0194 16.76C49.9794 16.76 50.0194 16.8 50.0194 16.76V16.76ZM42.8194 16.84C42.7794 16.64 42.9794 16.84 42.8194 16.84C42.6994 16.84 42.8594 17.04 42.8194 16.84ZM49.9394 16.84C49.7794 17 50.0594 16.76 49.9394 16.84V16.84ZM49.8994 16.92C49.8994 17 49.8194 17 49.7794 17C49.7794 16.92 49.8194 16.92 49.8994 16.92ZM42.7794 17.12C42.7394 17.12 42.7794 17.16 42.7794 17.12V17.12ZM49.6994 17.16C49.6994 17 49.8994 17.16 49.6994 17.16C49.6994 17.24 49.6994 17.24 49.6594 17.24C49.6594 17.28 49.5794 17.32 49.5794 17.36C49.4994 17.36 49.5394 17.28 49.5794 17.24C49.5794 17.24 49.5794 17.24 49.6594 17.24C49.6594 17.16 49.6594 17.16 49.6994 17.16ZM42.6994 17.36C42.6194 17.36 42.6994 17.4 42.6994 17.36V17.36ZM49.2994 17.4C49.2994 17.36 49.3394 17.36 49.2994 17.4C49.2194 17.48 49.2994 17.48 49.2994 17.4ZM49.2194 17.76C49.2194 17.64 49.2994 17.6 49.3394 17.52C49.4594 17.56 49.2994 17.76 49.2194 17.76ZM42.6194 17.64C42.5794 17.64 42.6194 17.72 42.6194 17.64V17.64ZM42.5794 18.12C42.5794 18 42.5394 17.84 42.6194 17.8C42.7794 17.84 42.5794 18 42.6194 18.12C42.5794 18.12 42.5794 18.12 42.5794 18.12C42.5794 18.2 42.4994 18.2 42.5794 18.12ZM49.0194 18.08C48.9394 18.04 49.0194 18 49.0194 17.96C49.0994 18 49.0194 18.04 49.0194 18.08ZM48.7794 18.28C48.7794 18.2 48.8194 18.12 48.9394 18.12C48.8594 18.2 48.8594 18.32 48.7794 18.28ZM42.4994 18.6C42.3394 18.56 42.5394 18.52 42.4994 18.44C42.5794 18.44 42.4994 18.56 42.4994 18.6ZM42.4994 18.84C42.3794 18.84 42.4594 18.72 42.4594 18.68C42.6194 18.68 42.4594 18.76 42.4994 18.84ZM48.3394 18.8C48.3394 18.76 48.3794 18.76 48.3394 18.8C48.2594 18.84 48.3394 18.84 48.3394 18.8ZM42.3394 19.08C42.3794 19.04 42.3794 19 42.3794 18.92C42.4994 18.96 42.5394 19.08 42.3394 19.08ZM47.8594 19.08C47.8194 19.08 47.8594 19.16 47.8594 19.08V19.08ZM42.2994 19.48C42.2594 19.32 42.3794 19.32 42.3394 19.2C42.3794 19.2 42.4594 19.52 42.2994 19.48ZM50.8994 19.48C50.8994 19.4 50.8994 19.28 50.9794 19.32C50.9794 19.4 50.9794 19.4 50.9794 19.44C50.9394 19.44 50.9394 19.44 50.9394 19.48C50.8994 19.48 50.8994 19.48 50.8994 19.48C50.8994 19.52 50.8594 19.56 50.8594 19.64C50.7394 19.64 50.7794 19.52 50.8594 19.48C50.8594 19.48 50.8594 19.48 50.8994 19.48ZM42.2994 19.56C42.2594 19.88 42.2994 19.4 42.2994 19.56V19.56ZM42.2594 19.8C42.2994 19.68 42.3394 20 42.2594 19.8V19.8ZM50.6594 20.04C50.6594 20 50.6594 19.96 50.6994 19.92C50.7394 19.92 50.6994 20 50.6994 20.04C50.6594 20.04 50.6594 20.04 50.6594 20.04C50.6594 20.16 50.6994 20.28 50.5394 20.24C50.5394 20.16 50.5394 20.12 50.6594 20.04ZM42.2594 20C42.2994 20.2 42.2994 19.8 42.2594 20V20ZM47.0194 20.16C46.9394 20.16 47.0194 20.2 47.0194 20.16V20.16ZM42.2194 20.84C42.0594 20.64 42.2594 20.4 42.2194 20.16C42.3394 20.2 42.2194 20.64 42.2194 20.84ZM46.7794 20.36C46.8194 20.52 46.8194 20.16 46.7794 20.36V20.36ZM46.5394 20.68C46.4594 20.68 46.5394 20.72 46.5394 20.68V20.68ZM42.0994 21.08C42.0994 21 42.0994 20.96 42.0994 20.92C42.2594 20.84 42.2594 21.12 42.0994 21.08ZM50.2594 20.96C50.2594 20.92 50.2994 20.92 50.2594 20.96C50.1794 21 50.2594 21 50.2594 20.96ZM42.1394 21.2C42.0994 21 42.2994 21.2 42.1394 21.2C42.0994 21.36 42.2194 21.4 42.2194 21.48C42.0194 21.56 42.0994 21.32 42.0994 21.2C42.0994 21.2 42.0994 21.2 42.1394 21.2ZM50.0594 21.36C50.0194 21.36 50.0594 21.4 50.0594 21.36V21.36ZM49.8194 21.56C49.8994 21.72 49.8994 21.36 49.8194 21.56V21.56ZM49.7794 22.12C49.8194 21.88 49.9394 21.68 50.0194 21.48C50.0594 21.64 49.8994 21.92 49.8194 22.12C49.7794 22.12 49.7794 22.12 49.7794 22.12C49.7794 22.16 49.8194 22.16 49.8194 22.28C49.7394 22.28 49.6994 22.2 49.7394 22.12C49.7394 22.12 49.7394 22.12 49.7794 22.12ZM42.2194 21.96C42.0994 21.96 42.0994 21.84 42.0994 21.72C42.1394 21.8 42.2194 21.84 42.2194 21.96ZM42.2594 22.2C42.1394 22.36 42.0994 22.12 42.1394 22.04C42.2594 21.96 42.0994 22.28 42.2594 22.2ZM49.5794 22.2C49.5794 22.28 49.5394 22.28 49.4994 22.28C49.4994 22.2 49.5394 22.2 49.5794 22.2ZM49.9394 22.36C49.9794 22.56 49.9794 22.16 49.9394 22.36V22.36ZM49.5394 22.4C49.5394 22.44 49.4994 22.44 49.4594 22.44C49.4594 22.4 49.4994 22.4 49.5394 22.4ZM49.6594 22.56C49.4994 22.68 49.7794 22.44 49.6594 22.56V22.56ZM49.4994 22.88C49.4994 22.8 49.4994 22.68 49.6594 22.68C49.5794 22.8 49.5794 22.88 49.4994 22.88C49.5794 23.04 49.4594 23.12 49.4194 23.28C49.3394 23.16 49.4194 22.92 49.4994 22.88ZM49.2194 23.72C49.2594 23.84 49.2994 23.52 49.2194 23.72V23.72ZM48.9794 23.84C48.8594 23.8 48.9794 23.76 48.9794 23.72C49.0594 23.76 48.9794 23.8 48.9794 23.84ZM49.2194 23.84C49.2194 23.88 49.1794 23.88 49.0994 23.88C49.0994 23.84 49.1794 23.84 49.2194 23.84ZM49.4594 23.84C49.4594 23.88 49.4194 23.88 49.3394 23.88C49.3394 23.84 49.4194 23.84 49.4594 23.84ZM49.0994 24C49.0594 24 49.0994 24.04 49.0994 24V24ZM49.0594 24.08C49.0594 24.04 49.0994 24.04 49.0594 24.08C48.9394 24.08 49.0994 24.28 49.0594 24.08ZM48.8194 24.2C48.6994 24.32 48.9794 24.08 48.8194 24.2V24.2ZM48.9794 24.44C49.0194 24.6 49.0194 24.24 48.9794 24.44V24.44ZM48.9394 24.76C48.7794 24.72 48.8594 24.68 48.8594 24.56C49.0194 24.6 48.9394 24.6 48.9394 24.76ZM48.7394 25C48.6994 25.28 48.7394 24.8 48.7394 25V25ZM48.4994 25.04C48.5394 25.2 48.5794 24.84 48.4994 25.04V25.04ZM48.4594 25.24C48.4594 25.2 48.4594 25.2 48.4594 25.16C48.4594 25.16 48.4994 25.16 48.5394 25.16C48.5394 25.2 48.5394 25.2 48.5394 25.24C48.4994 25.24 48.4594 25.24 48.4594 25.24ZM48.5394 25.68C48.5394 25.56 48.4594 25.32 48.6194 25.4C48.6194 25.52 48.6194 25.64 48.5394 25.68C48.4994 25.76 48.4994 25.92 48.4594 26C48.2994 25.96 48.4994 25.76 48.4994 25.68C48.4994 25.68 48.4994 25.68 48.5394 25.68ZM48.2194 25.92C48.2194 25.88 48.2594 25.88 48.2194 25.92C48.0994 25.96 48.2194 25.96 48.2194 25.92ZM48.2994 26.36C48.2594 26.24 48.2994 26.16 48.3394 26.12C48.4594 26.12 48.3394 26.28 48.3394 26.36C48.2994 26.36 48.2994 26.36 48.2994 26.36C48.2994 26.52 48.2594 26.64 48.2194 26.76C48.0194 26.72 48.2594 26.44 48.2994 26.36ZM48.0994 26.28C48.1394 26.44 48.2194 26.12 48.0994 26.28V26.28ZM48.4994 26.4C48.5394 26.36 48.4994 26.2 48.6194 26.24C48.6194 26.36 48.5794 26.4 48.4994 26.4ZM47.8594 27C47.8994 27.2 47.8994 26.84 47.8594 27V27ZM47.8994 27.56C47.8594 27.24 48.0594 27.24 48.0594 27.08C48.0994 27.16 48.0194 27.48 47.8994 27.56ZM47.6594 27.72C47.6194 27.72 47.6594 27.8 47.6594 27.72V27.72ZM47.6194 28.64C47.4994 28.4 47.7394 27.96 47.8594 27.68C47.9794 27.96 47.6194 28.28 47.6194 28.64ZM47.4194 28.52C47.2994 28.36 47.5794 28.4 47.4194 28.52C47.3394 28.56 47.4194 28.56 47.4194 28.52ZM47.5794 28.88C47.4994 28.84 47.4994 28.8 47.5394 28.76C47.5394 28.76 47.5794 28.76 47.6194 28.76C47.5794 28.8 47.5794 28.84 47.5794 28.88ZM47.4994 29.04C47.4194 29.04 47.4994 29.08 47.4994 29.04V29.04ZM47.4194 29.12C47.4994 29.32 47.4994 28.92 47.4194 29.12V29.12ZM47.3394 29.16C47.3394 29.24 47.2994 29.24 47.2594 29.24C47.2594 29.16 47.2994 29.16 47.3394 29.16ZM47.3394 29.56C47.1794 29.72 47.4994 29.48 47.3394 29.56V29.56ZM47.2594 30C47.0994 30 47.1794 29.84 47.2594 29.8C47.3794 29.84 47.1794 29.88 47.2594 30ZM46.9394 29.96C46.8994 29.96 46.9394 30 46.9394 29.96V29.96ZM47.0994 30.08C47.0594 30.08 47.0994 30.12 47.0994 30.08V30.08ZM46.8194 30.68C46.7794 30.96 46.8194 30.48 46.8194 30.68V30.68ZM47.0594 30.76C46.9394 30.92 46.8994 30.68 47.0194 30.6C47.1394 30.6 46.8994 30.76 47.0594 30.76ZM46.8994 31.08C46.8594 30.84 47.0594 31.04 46.8994 31.08C46.7794 31.08 46.9394 31.28 46.8994 31.08ZM46.6594 31.4C46.5794 31.32 46.6594 31.28 46.6594 31.24C46.7794 31.28 46.6594 31.32 46.6594 31.4ZM46.6994 31.52C46.7794 31.52 46.7794 31.52 46.7794 31.48C46.8594 31.48 46.8194 31.72 46.6994 31.64C46.6994 31.56 46.6994 31.56 46.6994 31.52ZM46.4594 32.12C46.4594 32.04 46.4594 32.04 46.4594 32C46.5794 31.96 46.5794 32.04 46.5794 32.16C46.5394 32.16 46.5394 32.12 46.4594 32.12ZM46.5794 32.36C46.5394 32.36 46.5794 32.4 46.5794 32.36V32.36ZM46.5394 32.96C46.4594 32.96 46.5394 33 46.5394 32.96V32.96ZM46.3794 33.64C46.4194 33.48 46.4594 33.84 46.3794 33.64V33.64ZM46.3394 34.16C46.1394 33.96 46.1794 34.32 46.3394 34.16V34.16ZM46.1794 34.32C46.1394 34.32 46.1794 34.36 46.1794 34.32V34.32ZM45.9794 37.76C45.8994 37.76 45.8994 37.72 45.8994 37.64C45.9394 37.64 45.9794 37.68 45.9794 37.76ZM49.0994 39.72C49.1794 39.92 49.1794 39.56 49.0994 39.72V39.72ZM48.6994 39.92C48.7394 40.12 48.7394 39.72 48.6994 39.92V39.92ZM54.3794 9.8C54.3394 9.8 54.3794 9.84 54.3794 9.8V9.8ZM54.0994 10.84C54.0594 10.88 53.7394 11.12 53.9794 11.16C53.9794 11.04 54.2194 10.92 54.0994 10.84ZM52.3794 12.96C52.3794 13 52.3794 13 52.3794 13.04C52.3794 13.04 52.4194 13.04 52.4594 13.04C52.4594 13 52.4594 13 52.4594 12.96C52.4194 12.96 52.3794 12.96 52.3794 12.96ZM52.1394 13.44C52.0994 13.44 52.1394 13.48 52.1394 13.44V13.44ZM42.8194 13.48C42.7794 13.48 42.7794 13.4 42.8194 13.48V13.48ZM51.6994 14C51.6594 14 51.6994 14.04 51.6994 14V14ZM51.4994 14.2C51.4594 14.2 51.4994 14.24 51.4994 14.2V14.2ZM50.9794 15.16C50.8594 15.16 51.0194 14.96 50.9794 15.16V15.16ZM49.9794 16.52C49.9794 16.36 49.9394 16.4 49.9394 16.52C49.9394 16.52 49.9394 16.52 49.9794 16.52ZM49.5394 16.76C49.4994 16.76 49.5394 16.8 49.5394 16.76V16.76ZM49.4594 16.84C49.4994 17.04 49.4994 16.64 49.4594 16.84V16.84ZM49.4194 17.12C49.4194 17.08 49.4594 17.08 49.4194 17.12V17.12ZM42.4594 17.12C42.3794 17.24 42.2994 17.28 42.3394 17.4C42.4594 17.4 42.5394 17.16 42.4594 17.12ZM49.1794 17.16C49.1794 17.24 49.0594 17.28 49.1794 17.32C49.1794 17.28 49.2594 17.24 49.1794 17.16ZM42.3794 17.56C42.3394 17.56 42.3794 17.6 42.3794 17.56V17.56ZM42.0194 19.64C42.1394 18.84 42.2194 18.36 42.3794 17.6C42.1394 18.04 42.0194 19 42.0194 19.64ZM48.8194 17.84C48.8594 17.84 48.9394 17.84 48.9394 17.8C48.8594 17.8 48.8194 17.8 48.8194 17.84ZM48.6994 17.88C48.6994 17.84 48.7394 17.84 48.6994 17.88V17.88ZM48.6994 17.88C48.5394 17.96 48.7394 18.12 48.6994 17.88V17.88ZM48.2994 18.24C48.3394 18.08 48.3794 18.44 48.2994 18.24V18.24ZM47.8994 18.76C47.8594 18.76 47.8994 18.8 47.8994 18.76V18.76ZM42.0194 19.64C41.8594 19.68 42.0594 19.88 42.0194 19.64V19.64ZM41.8594 20.64C42.0194 20.4 41.8994 20.16 42.0194 19.88C41.8194 19.96 41.8194 20.28 41.8594 20.64ZM47.0994 19.92C47.0994 19.92 47.1394 19.92 47.1394 19.88C47.0994 19.88 47.0994 19.88 47.0994 19.92ZM46.6194 20.28C46.5794 20.28 46.6194 20.36 46.6194 20.28V20.28ZM49.7394 20.52C49.7394 20.52 49.7394 20.52 49.7794 20.52C49.7794 20.48 49.8194 20.4 49.7794 20.4C49.7394 20.44 49.7394 20.48 49.7394 20.52ZM49.7394 20.52C49.6994 20.64 49.4994 20.76 49.6594 20.88C49.6594 20.72 49.7794 20.72 49.7394 20.52ZM41.8594 20.64C41.8194 20.64 41.8194 20.64 41.8194 20.64C41.7794 21.32 41.6594 22.04 41.9794 22.64C41.8194 21.96 41.8994 21.16 41.8594 20.64ZM49.4194 21.32C49.4594 21.48 49.4594 21.12 49.4194 21.32V21.32ZM49.3394 21.44C49.4194 21.56 49.2194 21.6 49.3394 21.64C49.4194 21.56 49.4994 21.48 49.3394 21.44ZM49.2194 21.8C49.1794 21.88 49.0194 22.04 49.1794 22.12C49.1794 22.04 49.2994 21.84 49.2194 21.8ZM49.0594 22.28C49.0194 22.08 49.2194 22.28 49.0594 22.28V22.28ZM49.0594 22.28C49.0194 22.28 49.0194 22.28 49.0194 22.28C49.0194 22.36 48.9394 22.36 48.9794 22.52C49.0194 22.44 49.0594 22.36 49.0594 22.28ZM48.9794 22.52C48.8594 22.56 48.8594 22.64 48.8194 22.76C48.9794 22.76 48.9794 22.64 48.9794 22.52ZM48.8194 22.88C48.7794 22.88 48.8194 22.92 48.8194 22.88V22.88ZM48.7394 23C48.7394 23.36 48.3394 23.76 48.4994 23.96C48.5394 23.64 48.9394 23.08 48.7394 23ZM48.8594 23.4C48.8194 23.4 48.8594 23.48 48.8594 23.4V23.4ZM48.6994 23.96C48.6194 23.96 48.6994 24 48.6994 23.96V23.96ZM48.3394 24.04C48.3394 24.12 48.2194 24.28 48.3394 24.32C48.2994 24.2 48.5794 24.04 48.3394 24.04ZM48.2594 24.36C48.1394 24.72 47.8994 25.16 47.9794 25.44C48.0194 25.08 48.2994 24.72 48.2594 24.36ZM47.8594 24.84C47.8194 24.84 47.8594 24.92 47.8594 24.84V24.84ZM48.3394 25.08C48.0994 25.08 48.2994 25.28 48.3394 25.08V25.08ZM47.4194 26.96C47.5794 26.64 47.8194 26.16 47.7794 25.8C47.6194 26.2 47.4994 26.52 47.4194 26.96ZM47.3394 26.44C47.2994 26.44 47.3394 26.48 47.3394 26.44V26.44ZM47.4194 26.96C47.1794 27.64 46.8594 28.4 46.8594 29.04C47.0194 28.36 47.2994 27.8 47.4194 26.96ZM47.3394 28.08C47.2994 28.08 47.3394 28.12 47.3394 28.08V28.08ZM46.7794 28.32C46.6994 28.32 46.7794 28.36 46.7794 28.32V28.32ZM46.6994 29.24C46.7794 29.24 46.8194 29.24 46.8194 29.16C46.7794 29.16 46.6994 29.16 46.6994 29.24ZM46.0994 31.8C46.2994 31.08 46.6194 30.04 46.6994 29.36C46.4194 30.12 46.1794 31 46.0994 31.8ZM46.3794 29.56C46.4194 29.76 46.4194 29.36 46.3794 29.56V29.56ZM46.6194 30.44C46.6594 30.6 46.6594 30.24 46.6194 30.44V30.44ZM46.5394 30.8C46.4594 30.8 46.5394 30.84 46.5394 30.8V30.8ZM46.0994 31.8C45.9394 32.16 45.7394 32.64 45.8994 32.88C45.9394 32.48 46.0594 32.28 46.0994 31.8ZM45.7394 32.12C45.6994 32.12 45.7394 32.16 45.7394 32.12V32.12ZM45.6994 33.84C45.8594 33.48 45.7394 33.24 45.8994 32.96C45.6594 33.16 45.6594 33.48 45.6994 33.84ZM45.6994 33.84C45.5794 33.88 45.4994 34.36 45.6594 34.36C45.6994 34.2 45.6994 34.04 45.6994 33.84ZM45.4194 34.08C45.3794 34.08 45.4194 34.12 45.4194 34.08V34.08ZM45.5794 34.44C45.4194 34.8 45.7394 34.64 45.5794 34.44V34.44ZM45.2594 35.52C45.2194 35.56 45.1794 35.6 45.2194 35.72C45.3794 35.8 45.3794 35.52 45.2594 35.52ZM45.2594 35.88C45.2194 36.32 45.3794 35.8 45.2594 35.88V35.88ZM45.2594 36.24C45.3794 36.48 45.3794 36.08 45.2594 36.24V36.24ZM45.3394 36.6C45.4194 36.84 45.4194 36.48 45.3394 36.6V36.6ZM45.4594 37.08C45.4194 37.52 45.5794 37 45.4594 37.08V37.08ZM45.5794 37.44C45.4994 37.44 45.5794 37.48 45.5794 37.44V37.44ZM45.6194 37.68C45.6594 37.88 45.6594 37.48 45.6194 37.68V37.68ZM45.8594 38.52C45.8194 38.64 45.9794 38.72 46.0594 38.64C45.9394 38.64 45.9794 38.48 45.8594 38.52Z" fill="white"/>
</svg>
